<svg width="61" height="63" viewBox="0 0 61 63" fill="none" xmlns="http://www.w3.org/2000/svg">
<path d="M61 31.3789C61 14.047 47.3465 0 30.5 0C13.6535 0 0 14.047 0 31.3789C0 46.0878 9.85293 58.4433 23.1371 61.8386V40.9642H16.8465V31.3789H23.1371V27.2482C23.1371 16.572 27.8313 11.62 38.0297 11.62C39.9598 11.62 43.2957 12.0122 44.6658 12.4045V21.0827C43.951 21.0092 42.7 20.9601 41.1393 20.9601C36.1353 20.9601 34.2053 22.9091 34.2053 27.9714V31.3789H44.1654L42.4498 40.9642H34.1934V62.525C49.3004 60.6496 61 47.4239 61 31.3789Z" fill="#FEE3B4"/>
</svg>
