<svg width="62" height="71" viewBox="0 0 62 71" fill="none" xmlns="http://www.w3.org/2000/svg">
<g clip-path="url(#clip0_152_48)">
<path d="M31.0138 19.5536C22.2121 19.5536 15.1125 26.6674 15.1125 35.487C15.1125 44.3065 22.2121 51.4204 31.0138 51.4204C39.8156 51.4204 46.9152 44.3065 46.9152 35.487C46.9152 26.6674 39.8156 19.5536 31.0138 19.5536ZM31.0138 45.8458C25.3259 45.8458 20.6759 41.2002 20.6759 35.487C20.6759 29.7737 25.3121 25.1282 31.0138 25.1282C36.7156 25.1282 41.3518 29.7737 41.3518 35.487C41.3518 41.2002 36.7018 45.8458 31.0138 45.8458ZM51.2746 18.9018C51.2746 20.968 49.6138 22.6182 47.5656 22.6182C45.5036 22.6182 43.8567 20.9542 43.8567 18.9018C43.8567 16.8495 45.5174 15.1854 47.5656 15.1854C49.6138 15.1854 51.2746 16.8495 51.2746 18.9018ZM61.8063 22.6737C61.571 17.6954 60.4362 13.2856 56.7964 9.65239C53.1705 6.01919 48.7696 4.88208 43.8013 4.63247C38.6808 4.34126 23.333 4.34126 18.2125 4.63247C13.258 4.86821 8.85715 6.00532 5.21741 9.63853C1.57768 13.2717 0.4567 17.6815 0.207593 22.6598C-0.0830322 27.7907 -0.0830322 43.1694 0.207593 48.3002C0.442861 53.2786 1.57768 57.6883 5.21741 61.3215C8.85715 64.9547 13.2442 66.0918 18.2125 66.3415C23.333 66.6327 38.6808 66.6327 43.8013 66.3415C48.7696 66.1057 53.1705 64.9686 56.7964 61.3215C60.4223 57.6883 61.5571 53.2786 61.8063 48.3002C62.0969 43.1694 62.0969 27.8045 61.8063 22.6737ZM55.1911 53.8055C54.1116 56.5235 52.0219 58.6174 49.2955 59.7129C45.213 61.3354 35.5254 60.961 31.0138 60.961C26.5022 60.961 16.8009 61.3215 12.7321 59.7129C10.0196 58.6313 7.92991 56.5374 6.83661 53.8055C5.21741 49.7147 5.59107 40.0077 5.59107 35.487C5.59107 30.9663 5.23125 21.2454 6.83661 17.1684C7.91607 14.4504 10.0058 12.3565 12.7321 11.261C16.8147 9.63853 26.5022 10.0129 31.0138 10.0129C35.5254 10.0129 45.2268 9.65239 49.2955 11.261C52.008 12.3426 54.0978 14.4366 55.1911 17.1684C56.8103 21.2592 56.4366 30.9663 56.4366 35.487C56.4366 40.0077 56.8103 49.7286 55.1911 53.8055Z" fill="#FEE3B4"/>
</g>
<defs>
<clipPath id="clip0_152_48">
<rect width="62" height="71" fill="white"/>
</clipPath>
</defs>
</svg>
