<svg width="628" height="750" viewBox="0 0 628 750" fill="none" xmlns="http://www.w3.org/2000/svg">
<g clip-path="url(#clip0_28_5844)">
<path d="M501.66 666.271H494.1L488.12 664.8L481.6 661.93L480.55 653.79L480.98 648.651L480.53 644.141L482.1 639.12L486.98 637.581L490.1 635.5L492.75 631.1L493.52 626.92L494.71 624.37L495.61 621.79L494.42 619.61L488.88 615.331L494.44 611.16L497.42 608.51L501.39 606.24L507.82 605.5L509.56 605.87L510.96 603.41V597.18L507.65 593.85L504.53 590L503.95 585.74L503.32 578.841L501.87 571.391L501.44 566.76L496.42 557.48L492.33 550.591L489.43 544.1L489.26 537.641L488.21 532.98L486.55 527.081L484.5 523.391L479.3 519.01L476.96 518.73L474.26 520.841L471.64 524.12L466.4 523.12L461.42 519.48L459.27 515.641L455.61 513.66L453.26 512.22L448.42 512.031L446.68 508.94L444.64 507.86L439.27 505.44L442.59 499.09L446.01 496.67L446.31 493.71L443.04 488.31L441.31 485.33L438.15 480.82L435.38 478.18L432.36 477.86L428.73 479.61L424.61 482.01L416.57 483.32L409.59 485.8L407.15 478.47L413.47 474.46L416.4 472.47L415.68 470.39L412.2 468.51L410.82 467.65L406.65 470.02L401.5 469.73L398.55 473.03L390.69 470.64L394.11 464.53L394.45 461.67L391.55 455.58L387.66 446.87L383.41 441.6L379.72 438.86L376.95 438.17L376.54 441.19L369.12 440.93L365.65 438.5L360.75 436.9L358.17 435.67L355.02 436.49L350.93 438.97L348.64 440.63H342.25L339.74 435.19L337.46 430.91L334.21 428.44L328.87 426.82L326.5 424.75L324.16 424.51L319.77 424.27L318.43 420.7L315.74 417.69L314.76 415.23L312.66 412.57L310.28 410.19L306.81 407.33L302.74 404.77L297.39 402.19L296.35 392.62L293.84 388.27L288.55 384.84L282.69 382.14L278.36 381.11L276.53 376.22L273.97 370.94L269.28 364.74L263.99 359.75L258.82 356.35L255.52 355.2L250.26 353.89L249.14 354.66L247.56 358.5L241.99 357.39L237.08 353.84L240.38 347.52L243.12 346.7L243.28 345.75L242.72 343.61L240.14 339.93L236.7 335.69L232.81 332.77L230.82 329.93L226.47 328.57L222.18 327.37L216.44 323.42L221.33 320.24L220.97 317.25L219.26 315.63L215.81 315.17L214.45 315.7L213.06 319.27L206.53 318.58L205.49 312.87L206.8 307.44L208.96 303.69L208.27 298.74L207.24 292.99L204.08 287.27L199.35 279.08L196.52 272.41L195.5 264.61V255.95L193.79 251.36L192.33 244.21L186.47 238.2L182.51 234.52L177.28 233.37L171.13 235.79L167.44 231.49L159.67 227.02L155.53 223.7L149.27 217.75L144.18 215.42L143.73 218.6L136.13 215.97L133.65 211.94L128.53 210.73L121.58 208.84L115.59 208.02L111.29 210.87L105.1 213.96L102.91 217L102.22 222.32L98.51 225.16L95.01 226.68L92.77 229.04L91.87 233.56L89.19 238.09L87.11 242.83L81.19 245.16L76.36 248.38L70.68 250.33L65.55 253.11L60.08 254.99H52.54L48.36 251.85L48.81 245.04L50.89 242.58L53.17 238.19L56.76 234.6L58.56 230.16L56.93 227.21L55.09 226.42L49.04 228.25L43.79 229.94L35.8 226.56L28.93 222.23L23.05 221.66L21.33 216.68L17 212.85L15.93 205.36L17.62 203.45L15.27 200.99L13.55 196.56L16.33 192.39L18.55 190.58L19.44 187.01L22.19 183.57L24.19 183.15V181.76L22.72 178.82L22.1 176.21L20.49 175.33L17.35 175.78L13.73 174.5L11.03 172.34L8.08 170.07V162.35L4.29 160.78L0 154.98L4.78 150.2L9.18 148.4L16.02 148.6L17.02 149.6L17.63 149.15L20.93 145.68L25.49 144.22L27.82 143.57L27.69 137.41L29.83 133.53L30.74 132.13L28.88 130.68L23.04 127.34L20.14 123.54L20.63 117.65L18.47 114.05L11.43 110.18V98.2405L19.53 95.2905L25.56 89.6705L31.04 94.7805L34.98 93.9005L39.17 90.0905L43.45 92.0605L50.93 86.3705H59.81L63.28 90.4705L68.69 90.2405L70.43 87.9205V83.8205H75.53V76.4805H80.32V73.6105H82.87V71.4205L78.31 66.4405L84.08 61.7705L87.34 59.9905L90.45 57.1605L92.44 54.3205L94.6 50.0005H101.87L104.42 54.6005V66.0405L107.11 68.7305L109.48 72.4505L111.49 75.7105L114.57 76.1805L120.64 76.9405L124.48 82.4205L122.26 85.1405L122.96 85.5505L126.44 88.1605V88.3205L129.05 85.3405L128.6 79.9705H131.35V76.5505L135.67 73.8005L138.17 71.0205L140.19 67.5605L141.56 63.9905V46.7805H154.5L156.6 53.0905L158.42 57.6405L160.52 61.1405H163.17L166.13 61.3205V57.6305H173.53L177.64 56.3905L183.33 55.4405L186.25 62.9505L187.82 66.7705L188.45 66.7305V65.5205L186.3 60.1305L188.06 56.8905L186.59 54.6805L181.75 51.8505L183.23 45.6205L185.73 39.9205L190.06 36.8905H198.23V41.9005L200.99 42.6405H204.6L205.69 42.4205V40.1305L202.08 36.2005L202.87 28.7005L206.37 21.3005L213.77 19.3505H219.72L223.69 21.3305L226.77 24.1305H234.62L237.6 23.6705L239.49 20.9405V15.2205L243.22 13.0605L244.34 9.98047H249.71L258.48 7.66047L259.17 9.04047L260.54 8.06047H263.94L269.59 6.48047L275.73 8.27047L277.89 9.85047L282.15 6.82047L286.61 4.60047L292.32 2.41047L300.59 -0.0195312L305.08 2.98047V8.58047L300.94 11.6805L300.19 12.5405V14.3705L301.78 16.1005L305.67 17.7405L309.12 20.5705V26.6805L312.23 28.4105L315 32.4605L317.59 33.9205L324.22 35.1305L332.37 36.4505L336.03 38.1705L340.53 39.1105L347.67 38.4605L354.97 40.8105L357.78 42.5005L360.55 42.3505L363.25 40.7805L369.67 41.2905L374.21 43.2405L380.67 44.2305L383.74 50.7105L379.4 56.0505L375.63 56.2505L374.38 58.5605L368.8 61.0405L367.47 64.5405L366.74 66.8805L367.53 68.2005L372.04 68.7605L376.93 71.9505L381.33 75.4705L375.97 79.7605L373 82.7205L371.42 84.1505V85.7205L371.94 86.6805L377.8 86.4305V93.4805L375.89 97.1005V98.9605L378.87 99.7105L382.35 102.49L387.2 105.5L390.26 110.91L392.77 115.61L388.19 120.55H379.48L380.55 114.82L379.92 111.54L377.56 109.35L373.26 105.87L372.83 106.09L372.62 109.64L367.36 112.56L363.28 113.38L357.03 111.69L353.5 110.4L351.44 111.85L349.56 116.54L343.46 118.2H340.51L336.32 120.29L331.89 122.61L328.11 124.71L322.98 127.49L316.5 131.25L310.81 134.98L309.26 137.46L308.67 145.52V154.39L311.87 157.25L315.51 160.03L321.38 165.02L317.25 170.93L313.88 176.7L309.54 181.91L305.27 179.89L305.07 180.07V183.39L306.32 197.39L308.4 206.74L311.65 217.91L318.45 226.31L327.78 234.19L336.56 240.46L349.76 248.46L357.03 256.59L363.69 261.09L370.19 262.77L376.63 266.38L378.57 273.66L381.5 282.86L386.35 294.24L390.92 305.56L393.25 318.25L401.11 334.79L411.19 348.57L420.12 355.1L422.59 360.65L434.9 366.91L436.61 373.32L441.43 375.9L448.37 377.69L455.26 384.57L464.39 385.54L480.9 386.58L493.84 384.7L505.72 383.13L512.26 385.58L515.75 393.1L514.33 399.91L507.73 404.2L502.51 406.72L499.87 410.28L500.83 414.44L503.11 418.48L519.26 427.68L538.65 436.53L548.35 440.12L556.7 442.97L565.06 448.91L576.45 457.09L584.23 463.44L596.42 467.98L609.17 472.85L612.05 481.71L619.05 486.92L626.34 493.37L633.76 502.53L637.28 510.28V518.461L633.05 523.35L631.74 529.16L631.48 536.56L623.91 538.86L618.93 535.37L613.17 532.93L609.85 529.38L605.36 524.391L605.64 517.641L606.38 513.021L604.28 508.46L600.58 504.41L597.03 503.73L592.94 503.53L580.52 502.42L575.72 500.13L568.38 497.02L563.1 492.22L561.05 488.3L556.3 488.59L551.01 492.97L548.02 497.76L544.08 504.4L539.63 514.41L536.09 517.021L536.25 520.831L536.76 526.18L532.74 531.151L531.13 534.73L530.97 537.98L532.94 542.281L534.38 544.01L540.71 545.591L546.65 548.68L550.38 552.831L557.61 555.591L561.45 559.86L566.35 561.82L563.56 568.32L562.71 571.54L563.89 575.281V580.19L563.1 583.19L567.04 586.93L567.32 593.41L564 599.44H557.63L553.19 597.32L548.52 599.22L542.71 602.3L536.86 604.19L534.87 607L533.69 609.531V621.341L532.99 629.151L527.92 636.88L523.18 639.81L519.71 642.87L515.2 647.19L513.36 651.06L511.79 657.36L506.73 662.91L501.65 666.211L501.66 666.271ZM494.66 661.61H500.29L503.71 659.38L507.58 655.141L509.08 649.32L511.39 644.47L516.59 639.5L520.59 636.01L524.62 633.521L528.48 627.641L529.06 621.091V608.55L530.98 604.531L533.98 600.281L541.11 597.98L546.68 595L553.38 592.271L558.72 594.831H561.28L562.64 592.35L562.5 589.05L557.93 584.711L559.27 579.63V576.04L557.9 571.701L559.25 566.68L560.22 564.41L558.74 563.82L554.92 559.581L547.69 556.82L543.77 552.461L539.07 550.021L531.79 548.201L528.98 544.831L526.27 538.93L526.53 533.67L528.75 528.74L531.96 524.781L531.62 521.141L531.36 514.8L535.9 511.45L540.03 502.2L544.07 495.39L547.49 489.92L554.53 484.09L563.81 483.53L566.87 489.39L570.95 493.1L577.7 495.96L581.79 497.91L593.28 498.94L597.76 499.18L602.99 500.18L608.22 505.91L611.22 512.41L610.28 518.29L610.11 522.74L613.31 526.29L615.92 529.091L621.22 531.331L624.75 533.8L626.97 533.13L627.18 528.401L628.8 521.24L632.65 516.781V511.34L629.79 505.05L622.87 496.5L616.07 490.53L608.11 484.62L605.46 476.46L594.8 472.39L581.91 467.58L573.59 460.79L554.58 447.21L546.82 444.55L536.82 440.85L517.07 431.82L499.71 421.93L496.46 416.19L494.87 409.29L499.47 403.07L505.59 400.12L510.18 397.12L510.89 393.72L508.85 389.33L505.18 387.95L494.48 389.36L481.09 391.31L463.95 390.22L453.14 389.07L445.99 381.92L439.74 380.31L432.65 376.51L430.96 370.16L419.03 364.09L416.4 358.16L407.89 351.93L397.03 337.01L388.82 319.72L386.47 306.89L382.09 296.05L377.14 284.4L374.13 274.94L372.68 269.51L368.49 267.16L361.8 265.43L354 260.15L346.81 252.11L333.99 244.32L324.91 237.82L315.03 229.42L307.51 220.12L303.94 207.83L301.77 197.96L300.48 183.5V178L304.53 174.36L308.34 176.17L310.25 173.88L313.45 168.35L315.21 165.83L312.62 163.63L308.91 160.79L304.09 156.48V145.27L304.78 135.98L307.48 131.66L314.18 127.27L320.77 123.44L329.74 118.53L334.26 116.16L339.47 113.55H342.9L346.16 112.66L347.69 108.84L352.86 105.19L358.59 107.27L363.5 108.59L365.8 108.13L368.19 106.8L368.41 103.12L371.3 101.67V95.9405L373.21 92.3205V91.2905L369.29 91.4605L366.83 86.8905V82.0805L369.89 79.3005L373.02 76.1905L373.91 75.4805L370.46 73.2405L364.76 72.5305L361.73 67.4705L363.15 62.9405L365.2 57.5705L371.1 54.9505L372.83 51.7305L377.14 51.5005L378.33 50.0405L377.57 48.4405L372.97 47.7305L368.58 45.8505L364.37 45.5105L361.96 46.9205L356.65 47.2005L353.08 45.0605L347.19 43.1605L340.3 43.7905L334.59 42.6005L331.02 40.9205L323.47 39.7005L316.02 38.3505L311.8 35.9805L309.04 31.9505L304.49 29.4205V22.7705L303.27 21.7705L299.07 20.0005L295.56 16.2005V10.8005L297.79 8.26047L300.46 6.26047V5.48047L299.85 5.07047L293.75 6.86047L288.41 8.91047L284.42 10.9005L277.88 15.6105L273.66 12.5105L269.59 11.3205L264.61 12.7205H262.06L257.47 16.0005L256.04 13.1305L250.35 14.6405H247.64L247.06 16.2405L244.19 17.9105V22.4005L240.34 27.9705L234.85 28.7905H225.02L221.08 25.2105L218.67 24.0005H214.42L209.7 25.2405L207.46 29.9605L206.97 34.5805L210.38 38.3005V46.2205L204.86 47.2805H200.41L193.6 45.4605V41.5305H191.56L189.51 42.9705L187.63 47.2805L187.11 49.5405L189.92 51.1805L193.55 56.6305L191.49 60.4105L193.16 64.5905V71.0305L184.85 71.6205L181.98 64.6405L180.42 60.6205L178.61 60.9205L174.28 62.2505H170.83V66.2205L163.01 65.7605H157.93L154.22 59.5105L152.26 54.6005L151.2 51.4105H146.27V64.8305L144.36 69.7205L142.01 73.7505L138.77 77.3505L136.07 79.0705V84.5905H133.72L133.91 86.8805L132.9 88.0305L133.36 88.2905L136.32 95.4805L133.27 101.08L126.02 101.6L121.85 93.6805V90.4405L120.36 89.3205L115.19 86.4505L118.71 82.1505L118.08 81.2505L114 80.7405L108.72 79.9305L105.6 74.8705L103.52 71.6105L99.83 67.9205V55.7605L99.19 54.6105H97.53L96.4 56.8105L94.02 60.2105L90.11 63.7605L86.55 65.7005L85.12 66.8705L87.58 69.5505V78.2105H85.03V81.0805H80.24V88.4205H75.14V89.4205L71.14 94.7505L61.24 95.1605L57.69 90.9705H52.54L44.08 97.4005L40.06 95.5505L37.24 98.1205L29.7 99.8005L25.61 95.9805L22.07 99.2905L16.14 101.45V107.38L21.86 110.53L25.44 116.5L24.97 122.1L26.21 123.73L31.66 126.87L37.01 131.05L33.82 135.96L32.41 138.53L32.59 147.05L26.86 148.65L23.52 149.72L20.59 152.75L16.59 155.69L14.08 153.18L10.07 153.06L7.45 154.13L6.17 155.41L7.31 156.95L12.78 159.21V167.75L13.94 168.65L16.06 170.35L17.86 170.99L21.41 170.48L26.19 173.11L27.16 177.2L28.88 180.64V186.91L24.82 187.77L23.74 189.11L22.72 193.2L19.84 195.54L18.79 197.11L19.3 198.42L23.97 203.3L20.87 206.81L21.39 210.48L25.35 213.99L26.5 217.3L30.51 217.69L38.15 222.51L44.04 224.97L47.69 223.8L55.4 221.47L60.26 223.55L63.73 229.85L60.74 237.22L56.99 240.97L54.8 245.19L53.37 246.88L53.19 249.64L54.11 250.33H59.33L63.88 248.77L69.01 245.99L74.31 244.17L79.05 241.01L83.65 239.2L85.15 235.84L87.5 231.87L88.51 226.81L92.33 222.79L96.17 221.12L97.89 219.81L98.48 215.24L102.03 210.31L109.11 206.77L114.51 203.17L122.7 204.31L129.72 206.22L136.65 207.86L139.27 212.12L139.96 212.36L140.46 208.84L145.94 211.1L151.96 213.85L158.71 220.27L162.48 223.28L170.49 227.86L172.55 230.26L176.93 228.53L184.78 230.25L189.79 234.91L196.65 241.94L198.34 250.24L200.18 255.09V264.45L201.07 271.16L203.6 277.12L208.15 284.97L211.71 291.41L212.89 298.01L213.81 304.63L211.19 309.18L210.27 313L210.35 313.45L210.88 312.1L215.26 310.39L221.38 311.21L225.41 315.02L226.32 322.56L225.11 323.35L227.81 324.11L233.74 325.96L236.22 329.5L239.98 332.32L243.93 337.2L247.04 341.63L248.07 345.55L247.27 350.34L249.38 348.89L256.98 350.8L260.92 352.17L267.06 356.25L272.9 361.8L278.08 368.73L280.88 374.51L281.88 377.18L284.46 377.84L290.97 380.87L297.34 385L300.89 391.17L301.76 399.14L305.13 400.78L309.68 403.67L313.51 406.85L316.24 409.61L318.84 412.91L319.77 415.23L322.5 418.28L323.08 419.82L324.59 419.9L328.46 420.29L331.19 422.68L336.37 424.25L341.1 427.84L343.95 433.19L345.24 435.98H347.14L348.44 435.04L353.2 432.15L358.66 430.74L362.63 432.63L367.76 434.29L370.67 436.33L372.5 436.39L373.04 432.39L381.75 434.57L386.67 438.21L391.67 444.42L395.78 453.63L399.24 460.89L398.63 465.96L399.53 464.96L405.55 465.3L410.94 462.24L414.6 464.53L419.48 467.16L421.95 474.33L415.23 478.86L415.61 478.77L423 477.56L426.62 475.46L431.52 473.1L437.43 473.73L441.81 477.98L445.27 482.93L447.03 485.96L451.08 492.65L450.42 499.26L446.19 502.26L445.68 503.24L446.75 503.73L450.07 505.48L451.2 507.49L454.65 507.62L457.98 509.66L462.67 512.18L464.99 516.32L468.3 518.74L469.76 519.021L470.97 517.51L475.61 513.88L481.24 514.56L488.16 520.391L490.89 525.31L492.75 531.91L493.92 537.31L494.07 543.06L496.54 548.57L500.51 555.24L505.99 565.37L506.5 570.841L507.95 578.3L508.58 585.271L508.96 588.081L511.18 590.831L515.6 595.25V604.651L511.9 611.12L507.58 610.211L502.85 610.75L500.13 612.31L497.29 614.82L496.55 615.38L498.02 616.521L500.66 621.36L498.96 626.22L497.97 628.341L497.15 632.771L493.53 638.79L488.99 641.81L485.79 642.82L485.23 644.61L485.63 648.6L485.21 653.67L485.86 658.711L489.78 660.44L494.63 661.6L494.66 661.61ZM243.91 353.01L244.72 353.17L245.37 351.59L247.24 350.31L243.61 351.4L243.08 352.41L243.91 353.01ZM385.11 115.9H386.18L387.12 114.88L386.2 113.15L384.37 109.92L385.3 114.82L385.1 115.9H385.11ZM126.45 92.5605L128.66 96.7705L130.34 96.6505L131.11 95.2305L129.6 91.5705L126.44 89.7605V92.5605H126.45Z" fill="#FCE4B6" fill-opacity="0.06"/>
<path d="M99.85 612.56L95.82 606.23V603.7L93.07 603.89H85.33L81.8 598.85L80.55 591.79L82.08 582.58L89.24 589.74L90.26 590.08L90.29 589.76L87.64 587.09L83.9 582.52L83.5 575.32L82.41 566.57L81.99 560.23L86.56 554.51L88.18 547.04L87.14 533.57L84.96 527.76L84.13 514.51L88.86 511.23L88.55 504.44V494.96L83.48 493.51V484.99L77.47 477.78H69.91L69.3 471.02L71.08 467.46L66.93 462.62L69.7 452.45L72.97 450.82V449.93L70.07 448.12V442.28L72.97 440.47V436.17L76.31 432.41L79.05 427.84H86.68V440.83H81.91L81.29 443.92L82.12 447.8L85.52 450.91L91.76 452.69L98.37 449.54L106.58 443.38L110.17 445.18L113.29 439.23L117.76 435.13L123.03 427.84H129.05L130.59 426.3V419.14H138.47L140.41 420.76L142.26 410.75L149.85 417.72L153.96 422.22L160.61 430.82V437.62L166.17 442.48L161.91 446.21L161.77 447.14L168.03 446.57L173.13 452.94L167.97 457.31L169.52 461.19L172.17 468.1L174.03 477.03V485.35L170.71 493.22L165.72 497.14L163.34 504.57L167.34 511.9L169.42 519.38L166.75 527.01L166.42 532.35L166.78 539.22L166.74 546.93L164.97 555.76V563.46L163.5 568.61L163.13 574.15L161.26 579.01L160.11 584.61L157.37 591.92H147.27L140.74 586.16L137.67 584.88L136.09 585.58L134.06 589.64L128.04 590.07L127.1 590.46L129.72 593.32L127.73 600.3L123.69 603.89L117.65 606.53L113.23 608.94H107.02L99.84 612.53L99.85 612.56ZM100.48 604.87L101.53 606.51L105.94 604.3H112.06L115.71 602.32L121.17 599.93L123.65 597.73L124.56 594.56L119.21 588.72L126.97 585.49L131.1 585.2L132.69 582.02L137.63 579.82L143.26 582.17L149.05 587.28H154.17L155.71 583.17L156.87 577.54L158.56 573.16L158.92 567.83L160.35 562.83L160.39 555.09L162.16 546.26V539.3L161.79 532.34L162.18 526.09L164.58 519.23L163.04 513.67L158.34 505.06L161.76 494.37L166.92 490.31L169.4 484.41V477.51L167.68 469.24L165.21 462.9L162.42 455.93L166.68 452.32L165.98 451.44L156.29 452.32L157.6 443.83L159.14 442.49L156 439.74V432.41L150.39 425.14L146.54 420.94L145.36 419.86L143.59 429.42L136.83 423.79H135.29V428.22L131.03 432.48H125.46L121.31 438.23L117.09 442.1L112.23 451.37L107.12 448.82L100.63 453.63L92.23 457.63L83.25 455.06L77.95 450.2L77.69 448.98V453.69L73.71 455.68L72.13 461.46L76.68 466.77L74.11 471.91L74.22 473.12H79.71L88.2 483.3V490L93.27 491.45V504.39L93.69 513.6L89 516.85L89.62 526.79L91.79 532.57L92.93 547.37L90.93 556.57L86.81 561.73L87.11 566.2L88.2 574.99L88.52 580.76L91.23 584.07L95.17 588.01L94.47 596.39L86.79 593.83L85.46 592.5L86.26 597.04L87.81 599.25H93.04L100.52 598.71V604.88L100.48 604.87ZM74.75 445.53L77.24 447.09L76.56 443.94L76.61 443.68L74.74 444.85V445.53H74.75ZM77.65 437.92V438.53L77.81 437.74L77.65 437.92ZM79.22 436.16H82.06V432.48H81.72L79.97 435.32L79.23 436.16H79.22Z" fill="#FCE4B6" fill-opacity="0.06"/>
<path d="M453.43 750L451.43 747.09L448.4 747.22L446.47 746.02L445.16 745.42L444.29 745.13L442.67 745.52L440.03 746.8L437.17 746.06L434.2 745.05L432.41 743.26L431.61 742.93L430.12 743.4L425.48 744.11L421.6 737.86L420.49 734.78L418.78 731.47L416.83 727.29L415.14 725.41L411.81 723.08L409.14 721.41L402.91 720.04L399.56 719.94L396.48 720.61L394.46 721.49L390.84 720.18L389.23 718.26L388.36 717.88L384.87 717.8L382.95 715.03L380.46 713.93L378.98 711.65L376.28 709.6L373.97 708.56L370.97 708.38L366.8 706.76L365.69 704.3L363.85 703.48L361.53 702.85L357.45 700.59L355.21 697.39L354.71 695.3L354.22 694.95L351.76 694.89L348.53 694.5L345.7 693.95L343.77 690.99L342.74 690.37L341 690.27L335.16 689.73L334.03 690.21L330.65 691.1L327.07 688.35L325.46 685.78L320.01 679.81L316.78 676.17L315.67 671.22L318.65 668.51L317.31 662.17L319.31 656.34L325.36 653.32L329.53 650.13L333.57 644.88L338.36 649.14L339.63 653.47L343.2 655.54L347.31 654.76L349.95 652.12L352.22 645.95H357.92L362.1 642.82L368.58 648.89V651.03L372.83 652.04L380.56 656.87L389.47 660.74L395.27 656.75L402.17 655.34L407.71 656.65L416.65 658.05L423.38 656.68L434.76 652.76L439.17 647.46L440.39 647.57C441.52 647.67 443.29 647.82 443.88 647.83C444.44 647.73 446.31 647.14 447.77 646.62L448.74 646.27L452.71 648.41L455.94 648.62L462.97 647.17L467.66 643.78L476.62 640.26L483.3 644.71L479.91 652.51L478.48 658.52L473.33 664.53L468.64 671.15L463.41 675.67L463.89 680.19L461.12 686.66L456.51 692.97L457.89 697.89L458.31 701.97L463.01 705.05L471.37 712.12H463.83V712.75C464.22 713.55 464.86 714.86 465.19 715.69C465.7 716.16 467.22 717.2 468.64 718.05L471.32 719.66L469.07 721.72L472.05 725.5L467.34 727.34H467.11L466.64 728.02L464.63 730.21H463.49L463.45 730.28L461.28 732.71L461.21 734.27L459.25 736.05L459.08 736.91L458.61 738.27L458.53 738.77L458.77 739.87L459.7 741.36L460.05 743.45L460.63 745.26L460.3 748.22L457.24 749.44L453.37 749.98L453.43 750ZM450.08 741.17L454.11 742.9L455.65 744.99H455.7L455.54 744.4L455.32 743.06L454.45 741.67L453.85 738.93L454.2 736.96L454.67 735.61L455.06 732.91L456.7 732.14L456.75 730.85L459.62 727.64L460.66 725.55H462.63L463.11 725.02L463.48 724.43L463.77 721.53L464.14 720.67C461.39 718.81 461.13 718.03 460.97 717.53C460.84 717.14 460.09 715.56 459.48 714.33L459.23 713.84V708.08L453.96 704.66L453.33 698.58L451.45 692.07L457.09 684.35L459.18 679.48L458.58 673.75L465.22 668.01L469.78 661.6L474.27 656.36L475.62 650.85L477.54 646.43L476.12 645.49L469.97 647.91L464.95 651.54L456.33 653.32L451.46 653L448.41 651.36C445.09 652.5 444.3 652.5 444.02 652.5C443.47 652.5 442.22 652.41 441.25 652.33L437.56 656.75L424.51 661.22L416.81 662.79L406.78 661.21L402.15 660.11L397.18 661.13L390.03 666.05L378.29 660.92L371.06 656.4L363.98 654.71V650.91L361.82 648.89L359.52 650.61H355.51L354.01 654.69L349.63 659.06L342.41 660.44L335.73 656.57L334.24 651.68L332.88 653.45L327.68 657.38L323.14 659.65L322.17 662.46L323.8 670.15L320.85 672.84L321.1 673.97L326.27 679.74L329.33 683.12L330.61 685.16L331.71 686.01L332.69 685.75L334.39 684.98L341.45 685.63L344.2 685.78L347.13 687.56L348.56 689.76L349.36 689.92L352.22 690.26L355.75 690.33L358.85 692.5L359.55 695.45L360.67 697.04L363.31 698.5L365.6 699.15L369.23 700.77L370.28 703.11L371.99 703.77L375.11 703.95L378.68 705.55L382.45 708.42L383.61 710.22L386.03 711.28L387.35 713.18L389.38 713.22L392.1 714.4L393.61 716.2L394.31 716.45L395.27 716.08L399.14 715.24L403.7 715.42L410.93 717.01L414.43 719.21L418.25 721.88L420.76 724.67L422.98 729.44L424.82 733.04L425.82 735.81L427.82 739.03L429.21 738.82L431.76 737.94L435.04 739.29L436.73 740.98L438.59 741.62L439.53 741.86L441.09 741.1L444.5 740.29L446.99 741.13L448.81 741.99L449.32 742.31L450.07 741.18L450.08 741.17Z" fill="#FCE4B6" fill-opacity="0.06"/>
</g>
<defs>
<clipPath id="clip0_28_5844">
<rect width="637.28" height="750" fill="white"/>
</clipPath>
</defs>
</svg>
