<svg width="295" height="21" viewBox="0 0 295 21" fill="none" xmlns="http://www.w3.org/2000/svg">
<path fill-rule="evenodd" clip-rule="evenodd" d="M23.7579 11.2186L15.9765 15.8993L6.32045 11.2186H23.7579ZM23.7579 9.30261L15.9765 4.62195L6.32045 9.30261H23.7579ZM271.241 11.2186L279.021 15.8993L288.677 11.2186H271.24H271.241ZM271.241 9.30261L279.021 4.62195L288.677 9.30261H271.24H271.241ZM33.5322 15.2455C32.6816 15.2455 31.9864 14.5237 31.9864 13.6404V12.7651C30.2569 14.0647 29.089 16.6505 28.4851 20.5239C26.3675 17.9247 26.0142 14.8239 27.4276 11.22L16.0703 18.0528L0 10.2606L16.0716 2.47109L27.4289 9.30395C26.0155 5.70005 26.3688 2.59918 28.4863 0C29.0915 3.87342 30.2582 6.45926 31.9877 7.75885V6.88356C31.9877 6.00027 32.6828 5.27842 33.5334 5.27842C34.3841 5.27842 35.0792 6.00027 35.0792 6.88356C35.0792 6.00027 35.7743 5.27842 36.6249 5.27842C37.4755 5.27842 38.1707 6.00027 38.1707 6.88356C38.1707 6.00027 38.8658 5.27842 39.7164 5.27842C40.567 5.27842 41.2621 6.00027 41.2621 6.88356C41.2621 6.00027 41.9573 5.27842 42.8079 5.27842C43.6585 5.27842 44.3536 6.00027 44.3536 6.88356V8.74222H250.648V6.88356C250.648 6.00027 251.343 5.27842 252.193 5.27842C253.044 5.27842 253.739 6.00027 253.739 6.88356C253.739 6.00027 254.434 5.27842 255.285 5.27842C256.135 5.27842 256.831 6.00027 256.831 6.88356C256.831 6.00027 257.526 5.27842 258.376 5.27842C259.227 5.27842 259.922 6.00027 259.922 6.88356C259.922 6.00027 260.617 5.27842 261.468 5.27842C262.318 5.27842 263.014 6.00027 263.014 6.88356V7.75885C264.743 6.45926 265.911 3.87342 266.515 0C268.632 2.59918 268.986 5.70139 267.572 9.30395L278.93 2.47109L295 10.262L278.93 18.0528L267.572 11.22C268.986 14.8239 268.632 17.9247 266.515 20.5239C265.91 16.6505 264.743 14.0647 263.014 12.7651V13.6404C263.014 14.5223 262.318 15.2455 261.468 15.2455C260.617 15.2455 259.922 14.5237 259.922 13.6404C259.922 14.5223 259.227 15.2455 258.376 15.2455C257.526 15.2455 256.831 14.5237 256.831 13.6404C256.831 14.5223 256.135 15.2455 255.285 15.2455C254.434 15.2455 253.739 14.5237 253.739 13.6404C253.739 14.5223 253.044 15.2455 252.193 15.2455C251.343 15.2455 250.648 14.5237 250.648 13.6404V11.7817H44.3523V13.6404C44.3523 14.5223 43.6572 15.2455 42.8066 15.2455C41.956 15.2455 41.2609 14.5237 41.2609 13.6404C41.2609 14.5223 40.5657 15.2455 39.7151 15.2455C38.8645 15.2455 38.1694 14.5237 38.1694 13.6404C38.1694 14.5223 37.4742 15.2455 36.6236 15.2455C35.773 15.2455 35.0779 14.5237 35.0779 13.6404C35.0779 14.5223 34.3828 15.2455 33.5322 15.2455Z" fill="#FEE3B4"/>
</svg>
