<?xml version="1.0" encoding="UTF-8"?>
<svg id="Layer_1" xmlns="http://www.w3.org/2000/svg" viewBox="0 0 445.61 450">
  <defs>
    <style>
      .cls-1 {
        fill: #fee3b4;
      }
    </style>
  </defs>
  <path class="cls-1" d="M228.45,202.33v.06h0v.04h0s0,.01,0,.02v.02h0v.04s0,.01,0,.02h0v.03c.12,1.34.98,2.51,2.24,3.03.14.06.28.1.42.15,0,0,.01,0,.01,0h.01s0,0,0,0h0s0,0,0,0h0s.01,0,.01,0c0,0,0,0,.01,0,.29.07.59.11.89.11.19,0,.37-.01.55-.04h0s.01,0,.02,0,0,0,0,0h.01s0,0,0,0h.02s0,0,0,0h.01c.73-.13,1.41-.48,1.95-1.02l112.07-113.02c.22-.22.41-.47.56-.73l26.46-26.72c.68-.68,1.06-1.61,1.05-2.58,0-.96-.4-1.89-1.08-2.56C335.66,21.53,285.37.51,232.11,0h-.03c-.96,0-1.88.38-2.56,1.05-.69.68-1.08,1.61-1.08,2.58v198.65h0s0,.02,0,.03h0ZM235.71,7.33c48.78,1.37,94.79,20.6,130.28,54.48l-21.99,22.21c-29.49-27.9-67.68-43.84-108.29-45.19V7.33ZM235.71,46.1c38.68,1.34,75.06,16.53,103.18,43.08l-103.18,104.21V46.1Z"/>
  <path class="cls-1" d="M288.04,248.31l-7.51-4.2c-1.76-.98-3.97-.35-4.95,1.4-.98,1.75-.35,3.96,1.4,4.95l7.51,4.2c.56.31,1.17.46,1.77.46,1.28,0,2.51-.67,3.18-1.86.98-1.75.35-3.97-1.4-4.95Z"/>
  <path class="cls-1" d="M104.51,178.05c-.04,3.53,1.35,6.98,3.81,9.46,2.46,2.49,5.73,3.86,9.21,3.86h0c3.47,0,6.75-1.37,9.22-3.86,2.46-2.48,3.85-5.93,3.81-9.47-.04-3.49-1.4-6.71-3.84-9.08-2.46-2.47-5.72-3.83-9.19-3.83h0c-3.48,0-6.75,1.37-9.15,3.8-2.46,2.37-3.83,5.61-3.87,9.11ZM113.49,174.11c1.09-1.1,2.52-1.71,4.05-1.71s2.96.61,4.05,1.71c.02.02.04.04.06.06,1.05,1.01,1.63,2.42,1.65,3.96.02,1.6-.6,3.16-1.71,4.27-1.09,1.1-2.53,1.71-4.05,1.71s-2.96-.61-4.05-1.71c-1.11-1.11-1.72-2.67-1.71-4.27.02-1.54.6-2.95,1.71-4.02Z"/>
  <path class="cls-1" d="M143.27,199.99c.51,1.52,1.93,2.48,3.45,2.48.38,0,.77-.06,1.15-.19,1.9-.63,2.93-2.69,2.3-4.6l-4.96-14.86c-.63-1.9-2.7-2.94-4.6-2.29-1.9.63-2.93,2.69-2.3,4.6l4.96,14.86Z"/>
  <path class="cls-1" d="M301.24,250.1c-6.17,6.43-6.15,16.75.04,22.99,3.09,3.12,7.17,4.83,11.51,4.83h.14c4.31-.04,8.33-1.77,11.22-4.79,3.07-3,4.78-7.03,4.81-11.36.03-4.41-1.66-8.57-4.77-11.72-6.22-6.28-16.48-6.29-22.95.04ZM318.98,268.02c-1.61,1.68-3.78,2.62-6.12,2.64h-.07c-2.39,0-4.64-.95-6.35-2.68-3.38-3.41-3.37-9.3-.04-12.76,1.78-1.74,4.1-2.62,6.39-2.62s4.53.86,6.23,2.57c1.74,1.76,2.69,4.08,2.67,6.54-.02,2.38-.95,4.59-2.7,6.31Z"/>
  <path class="cls-1" d="M70.61,181.65c.08,0,.16,0,.24,0l15.02-.97c2-.13,3.52-1.86,3.39-3.86-.13-2-1.99-3.46-3.85-3.39l-15.02.97c-2.01.13-3.52,1.86-3.39,3.86.12,1.92,1.72,3.4,3.62,3.4Z"/>
  <path class="cls-1" d="M56.37,195.72l27.81,7.75c.32.09.66.13.97.13,1.59,0,3.05-1.05,3.5-2.66.54-1.93-.59-3.94-2.52-4.48l-27.81-7.75c-1.93-.55-3.94.6-4.47,2.52-.54,1.93.59,3.94,2.52,4.48Z"/>
  <path class="cls-1" d="M88.84,169.1c5.28,0,10.23-2.06,13.9-5.77,3.76-3.7,5.84-8.65,5.88-13.94.04-5.37-2.04-10.44-5.84-14.29-7.41-7.48-20.45-7.48-27.87,0-3.81,3.84-5.88,8.92-5.84,14.29.03,5.29,2.12,10.24,5.84,13.91,3.71,3.74,8.65,5.8,13.93,5.8ZM80.07,140.2c2.32-2.35,5.44-3.65,8.77-3.65s6.44,1.29,8.77,3.65c2.44,2.46,3.77,5.71,3.75,9.13-.02,3.35-1.34,6.48-3.75,8.85-4.65,4.7-12.85,4.74-17.57-.03-2.37-2.34-3.69-5.47-3.71-8.81-.02-3.43,1.31-6.67,3.75-9.13Z"/>
  <path class="cls-1" d="M349.16,206.96h.12c8.94,0,17.39-3.51,23.82-9.92,13.08-13.21,13.08-34.69,0-47.9,0,0-.01-.01-.02-.02-6.44-6.42-15.22-9.95-23.92-9.9-8.91.03-17.29,3.55-23.59,9.92-13.07,13.21-13.07,34.69,0,47.9,6.3,6.36,14.68,9.89,23.59,9.92ZM330.74,154.25c4.93-4.98,11.48-7.74,18.45-7.76h.09c7.01,0,13.63,2.76,18.67,7.77,10.27,10.39,10.27,27.29,0,37.65-5.03,5.02-11.66,7.78-18.68,7.78h-.09c-6.97-.02-13.52-2.78-18.45-7.76-10.28-10.39-10.28-27.29,0-37.68Z"/>
  <path class="cls-1" d="M251.59,144.42c-1.87-.72-3.98.23-4.69,2.1l-5.28,13.89c-.71,1.88.23,3.97,2.11,4.69.42.16.86.24,1.29.24,1.46,0,2.85-.89,3.4-2.34l5.28-13.89c.71-1.88-.23-3.98-2.11-4.69Z"/>
  <path class="cls-1" d="M383.49,249.09c-8.18-8.26-22.56-8.26-30.74,0-8.45,8.53-8.45,22.42,0,30.95,4.09,4.13,9.55,6.41,15.37,6.41s11.28-2.27,15.37-6.41c8.44-8.53,8.44-22.42,0-30.95ZM378.33,274.92c-5.43,5.48-14.98,5.48-20.41,0-5.66-5.71-5.66-15.01,0-20.72,2.72-2.74,6.34-4.25,10.21-4.25s7.49,1.51,10.21,4.25c5.66,5.71,5.66,15.01,0,20.72Z"/>
  <path class="cls-1" d="M259.65,86.42c3.99,0,7.72-1.54,10.5-4.35,5.76-5.82,5.76-15.28,0-21.1h0c-5.55-5.6-15.49-5.56-20.95-.04-2.87,2.8-4.45,6.56-4.45,10.59s1.58,7.8,4.41,10.55c2.78,2.8,6.5,4.34,10.5,4.34ZM254.32,66.09c1.4-1.42,3.29-2.19,5.33-2.19s3.93.78,5.33,2.19c2.92,2.95,2.92,7.93,0,10.87-2.8,2.83-7.82,2.87-10.71-.04-1.46-1.42-2.26-3.34-2.26-5.39s.8-3.97,2.3-5.44Z"/>
  <path class="cls-1" d="M284.2,194.79c.44,1.62,1.91,2.68,3.51,2.68.31,0,.63-.04.95-.13l19.02-5.17c1.93-.53,3.08-2.52,2.56-4.46-.53-1.94-2.51-3.09-4.46-2.55l-19.02,5.17c-1.93.53-3.08,2.52-2.56,4.46Z"/>
  <path class="cls-1" d="M441.98,230.89h-196.74s-.08,0-.08,0c-.97.05-1.87.48-2.5,1.18,0,0,0,0,0,0t0,0s0,0,0,0h0s0,0,0,.01h0s0,0,0,0h0s0,0,0,0c0,0,0,0,0,0-.26.29-.47.63-.63,1-.09.21-.15.43-.2.66h0s0,.02,0,.02h0v.02h0s0,0,0,.01h0v.02h0v.02h0v.02h0c-.2,1.15.15,2.34,1,3.19l111.91,113.03c.2.2.41.37.64.52l26.54,26.77c.68.69,1.61,1.07,2.58,1.07h.01c.98,0,1.91-.4,2.59-1.1,37.26-38.27,58.06-88.99,58.58-142.81,0-.97-.37-1.9-1.05-2.59-.68-.69-1.61-1.08-2.58-1.08ZM254.06,238.16h145.83c-1.32,39-16.35,75.7-42.64,104.11l-103.19-104.11ZM384.38,369.63l-22-22.2c27.66-29.78,43.46-68.32,44.79-109.27h31.11c-1.34,49.34-20.37,95.76-53.9,131.47Z"/>
  <path class="cls-1" d="M149.09,109.2c4.86,4.91,11.34,7.61,18.24,7.62h0c6.91,0,13.38-2.7,18.25-7.62,10.24-10.35,10.24-26.57,0-36.92-4.87-4.91-11.35-7.62-18.25-7.62h0c-6.9,0-13.38,2.71-18.26,7.64-10.05,10.34-10.05,26.53.02,36.9ZM154.25,77.39c3.49-3.52,8.13-5.46,13.08-5.46s9.6,1.94,13.09,5.46c7.41,7.49,7.41,19.21,0,26.7-3.49,3.52-8.13,5.46-13.09,5.46s-9.59-1.94-13.06-5.44c-7.29-7.5-7.29-19.24-.02-26.72Z"/>
  <path class="cls-1" d="M280.19,106.16c-8.03-7.9-20.46-7.9-28.28,0-3.87,3.81-6,8.89-6,14.3s2.13,10.48,5.96,14.26c3.93,3.97,9,5.95,14.1,5.95s10.22-1.98,14.25-5.95c7.78-7.86,7.78-20.66,0-28.52-.01-.01-.02-.02-.03-.03ZM275.09,129.57c-5.13,5.07-13.07,5.07-18.08,0-2.47-2.43-3.83-5.67-3.83-9.11s1.36-6.69,3.87-9.15c2.49-2.51,5.71-3.77,8.95-3.77s6.52,1.26,9.08,3.79c4.98,5.05,4.97,13.25.02,18.25Z"/>
  <path class="cls-1" d="M336.73,287.13c-1.53-1.28-3.82-1.11-5.12.44-1.29,1.53-1.1,3.82.43,5.12l18.38,15.5c.68.57,1.51.85,2.34.85,1.03,0,2.06-.44,2.78-1.29,1.29-1.53,1.1-3.82-.43-5.12l-18.38-15.5Z"/>
  <path class="cls-1" d="M354.67,99.89l-111.91,113.19c-.18.18-.34.38-.47.59h0s0,.01,0,.01c0,0,0,0,0,0,0,0,0,0,0,0h0s0,.01,0,.01h0s0,.01,0,.01c0,0,0,0,0,.01h0s0,.01,0,.01h0s0,.01,0,.01h0s0,0,0,0h0s0,.01,0,.01h0s0,.02,0,.02h0s0,.02,0,.02h0s0,.01,0,.01h0s0,0,0,0h0s0,0,0,.01h0s0,0,0,0h0v.02h0s0,.01,0,.01h0s0,.01,0,.01h0s0,0,0,0h0s0,.01,0,.01h0s0,0,0,0h0s0,0,0,.01h0v.02h0s0,.01,0,.02h0s0,0,0,.01h0s0,0,0,0h0s0,0,0,.01h0s0,0,0,0h0s0,0,0,0h0s0,.01,0,.01h0s0,.01,0,.01h0s0,.01,0,.01h0s0,0,0,.01h0s0,0,0,.01h0s0,0,0,.01h0s0,.01,0,.01h0s0,.01,0,.02h0s0,0,0,0h0s0,.01,0,.01h0s0,.02,0,.02h0s0,0,0,0h0s0,.02,0,.02h0s0,0,0,0h0s0,.01,0,.01h0s0,.01,0,.01h0s0,.01,0,.02h0s0,0,0,0h0s0,.01,0,.01h0s0,.02,0,.02h0s0,.01,0,.01h0s0,.01,0,.01h0s0,.01,0,.01h0s0,.01,0,.01h0s0,.01,0,.01h0s0,.02,0,.02h0s0,0,0,.02h0s0,.01,0,.01h0v.02h0s0,.01,0,.01h0s0,.02,0,.02h0v.02h0s0,.01,0,.01h0s0,.02,0,.02h0s0,.01,0,.01h0v.02h0s0,.02,0,.02h0s0,.01,0,.01h0s0,.01,0,.02h0v.02s0,0,0,0h0s0,.02,0,.02h0s0,.01,0,.02h0s0,.02,0,.02h0s0,.02,0,.02h0v.02h0v.02s0,0,0,0h0s0,.02,0,.02h0v.02h0v.02s0,0,0,0h0v.02h0v.02h0v.02h0v.02h0s0,.02,0,.02h0s0,.02,0,.02h0v.02s0,0,0,0h0v.02s0,.01,0,0h0v.02h0s0,.01,0,.01h0v.02s0,0,0,0h0v.02h0s0,.01,0,.01h0v.02h0s0,.02,0,.02h0v.02h0s0,.01,0,.01h0v.02h0v.02h0c-.08.56-.03,1.14.15,1.69h0v.02s0,0,0,0h0s0,.02,0,.02h0s0,.01,0,.02h0s0,.01,0,.01h0s0,.01,0,.02h0v.02h0s0,0,0,0h0s0,.01,0,.02c0,0,0,.01,0,.02.01.03.03.07.04.1.17.4.4.75.68,1.06h0s0,.01,0,.01c0,0,0,0,0,0,0,0,0,0,0,0,0,0,0,0,0,0,0,0,0,0,0,0,0,.01,0,0,0,0h0s0,0,0,0t0,0h0s0,0,0,0h0s0,0,0,0h0s0,0,0,0h0s0,.01,0,.01c0,.01,0,0,0,0,0,0,0,0,0,0h0s0,0,0,0h0s0,0,0,0h0s0,0,0,0c0,.04,0,0,0,0,0,0,0,0,0,0,0,0,0,0,0,0,0,0,0,0,0,0h0s0,0,0,0c0,0,0,0,0,0,0,0,0,0,0,0,0,0,0,0,0,0h.01c.61.59,1.41.96,2.28,1.01h.04s.01,0,.02,0c.03,0,.05,0,.08,0h196.73c.97,0,1.9-.38,2.58-1.08.68-.69,1.06-1.62,1.05-2.59-.51-53.76-21.31-104.54-58.57-142.97-.68-.7-1.61-1.1-2.59-1.1-.86.25-1.91.38-2.6,1.08l-26.46,26.73c-.26.16-.5.34-.72.56ZM384.38,80.38c33.52,35.86,52.55,82.34,53.9,131.63h-31.11c-1.33-41.04-17.12-79.63-44.78-109.42l21.99-22.21ZM399.9,212h-145.84l103.22-104.25c26.28,28.41,41.3,65.16,42.62,104.25Z"/>
  <path class="cls-1" d="M303.79,88.33l-12.47-13.24c-1.38-1.46-3.68-1.53-5.13-.15-1.46,1.37-1.53,3.67-.15,5.14l12.47,13.24c.72.76,1.68,1.14,2.64,1.14.89,0,1.79-.33,2.49-.99,1.46-1.37,1.53-3.67.15-5.14Z"/>
  <path class="cls-1" d="M178.2,311.46c1.04,0,2.07-.44,2.78-1.29l16.15-19.21c1.29-1.54,1.09-3.83-.45-5.12-1.53-1.29-3.83-1.09-5.12.44l-16.15,19.21c-1.29,1.54-1.09,3.83.45,5.12.68.57,1.51.85,2.34.85Z"/>
  <path class="cls-1" d="M147.46,380.12c4.95,5.08,11.55,7.88,18.59,7.88s13.65-2.8,18.55-7.84c5.02-4.98,7.78-11.63,7.78-18.72s-2.75-13.72-7.76-18.71c-4.94-5.07-11.54-7.86-18.57-7.86s-13.65,2.8-18.57,7.86c-10.21,10.31-10.21,27.09-.02,37.38ZM152.67,347.82c3.56-3.66,8.32-5.68,13.38-5.68s9.82,2.02,13.38,5.68c.02.01.03.03.04.04,3.64,3.61,5.64,8.43,5.64,13.57s-2,9.96-5.68,13.61c-7.13,7.32-19.62,7.35-26.79-.02-7.42-7.49-7.42-19.69.02-27.21Z"/>
  <path class="cls-1" d="M261.35,303.18c.21.04.42.05.63.05,1.73,0,3.27-1.24,3.57-3.01.34-1.98-.98-3.86-2.96-4.21l-12.95-2.26c-1.93-.34-3.85.98-4.2,2.95-.34,1.98.98,3.86,2.96,4.21l12.95,2.26Z"/>
  <path class="cls-1" d="M196.91,327.15l-7.2-10.98c-1.1-1.68-3.35-2.15-5.03-1.05-1.67,1.1-2.14,3.35-1.05,5.03l7.2,10.98c.7,1.07,1.86,1.64,3.05,1.64.68,0,1.37-.19,1.99-.59,1.67-1.1,2.14-3.35,1.05-5.03Z"/>
  <path class="cls-1" d="M195.01,378.13l-6.87,10.17c-1.12,1.66-.68,3.92.98,5.04.62.42,1.33.62,2.03.62,1.17,0,2.31-.56,3.02-1.6l6.87-10.17c1.12-1.66.68-3.92-.98-5.04-1.66-1.12-3.92-.69-5.05.97Z"/>
  <path class="cls-1" d="M213.34,0c-53.15.51-103.39,21.53-141.44,59.18-1.43,1.41-1.44,3.71-.03,5.14l26.5,26.8c.15.23.32.45.51.65l111.9,113.01h.01c.69.72,1.63,1.09,2.58,1.09.47,0,.94-.09,1.38-.27.16-.07.32-.14.47-.23,0,0,0,0,0,0h0s0,0,0,0c0,0,0,0,0,0h0s0,0,0,0h0c1.03-.63,1.69-1.74,1.74-2.96h0v-.02h0v-.02s0-.05,0-.08V3.63c0-.97-.39-1.9-1.08-2.58-.68-.68-1.55-1.01-2.59-1.05ZM209.74,193.39l-103.04-104.19c28.12-26.56,64.44-41.75,103.04-43.1v147.29ZM209.74,38.83c-40.52,1.35-78.67,17.29-108.15,45.2l-21.98-22.22C115.11,27.94,161.05,8.7,209.74,7.33v31.5Z"/>
  <path class="cls-1" d="M265.13,382.62l-12.95-6.94c-1.79-.95-3.97-.28-4.92,1.49-.95,1.77-.29,3.97,1.48,4.92l12.95,6.94c.55.29,1.13.43,1.71.43,1.3,0,2.55-.7,3.21-1.92.95-1.77.29-3.97-1.48-4.92Z"/>
  <path class="cls-1" d="M170.63,124.1c-1.14-1.64-3.4-2.05-5.06-.9-1.65,1.15-2.05,3.41-.9,5.06l11.03,15.82c.7,1.01,1.83,1.55,2.99,1.55.72,0,1.44-.21,2.07-.65,1.65-1.15,2.05-3.41.9-5.06l-11.03-15.82Z"/>
  <path class="cls-1" d="M346.83,358.5s-.07-.07-.1-.1l-112.05-113.17-.02-.02s-.01-.01-.02-.02c-.51-.5-1.13-.83-1.8-.98-.7-.15-1.46-.09-2.15.19-.37.15-.72.37-1.01.63-.78.68-1.24,1.67-1.24,2.73v198.6c0,.97.39,1.9,1.08,2.58.68.67,1.6,1.05,2.56,1.05h.03c53.26-.51,103.54-21.53,141.6-59.17.68-.68,1.07-1.6,1.08-2.56,0-.96-.38-1.89-1.05-2.57l-26.91-27.18ZM235.71,256.6l103.25,104.29c-28.26,26.6-64.67,41.82-103.25,43.17v-147.46ZM235.71,442.67v-31.34c40.51-1.35,78.73-17.32,108.37-45.27l21.91,22.13c-35.5,33.87-81.5,53.11-130.28,54.47Z"/>
  <path class="cls-1" d="M215.6,244.89s0,0,0,0h0s0,0,0,0h0s-.01-.01-.01-.01h0s0,0,0,0c-.24-.18-.51-.34-.8-.46-1.12-.46-2.39-.32-3.38.32-.01,0-.02.02-.03.03h0s0,0,0,0h0s0,0,0,0h0s0,0-.01,0c.01.02-.01.01-.01,0h0s0,0-.01.01c0,0,0,0,0,0h0s-.01,0-.01,0c0,0,0,0,0,0h0s0,0,0,0h0c-.06.04-.01,0-.01,0h0s0,0,0,0c0,0,0,0,0,0h-.01s-.02.03-.03.04h0c-.13.1-.26.21-.39.34l-138.92,140.48c-1.41,1.43-1.4,3.73.03,5.14,38.06,37.65,88.29,58.66,141.44,59.17h.03c.96,0,1.88-.38,2.56-1.05.69-.68,1.08-1.61,1.08-2.58v-198.6c0-1.14-.53-2.19-1.41-2.87h0ZM209.74,442.67c-48.69-1.37-94.63-20.61-130.12-54.48l21.9-22.15c29.63,27.96,67.81,43.93,108.22,45.28v31.34ZM209.74,404.06c-38.49-1.35-74.84-16.57-103.1-43.17l103.1-104.28v147.45Z"/>
  <path class="cls-1" d="M194.61,156.74c.18.03.37.04.55.04,1.76,0,3.31-1.29,3.59-3.09l2.56-16.79c.3-1.98-1.06-3.84-3.05-4.14-1.97-.34-3.83,1.06-4.14,3.05l-2.56,16.79c-.3,1.98,1.06,3.84,3.05,4.14Z"/>
  <path class="cls-1" d="M87.48,295.98c-.66-1.9-2.73-2.89-4.62-2.24-1.89.66-2.9,2.73-2.24,4.62l6.71,19.38c.52,1.5,1.93,2.45,3.43,2.45.4,0,.79-.07,1.19-.2,1.89-.66,2.9-2.73,2.24-4.62l-6.71-19.38Z"/>
  <path class="cls-1" d="M90.12,262.3c0-4.36-1.7-8.43-4.79-11.46-6.18-6.21-16.73-6.2-22.89.02-6.24,6.31-6.24,16.57,0,22.87,3.08,3.12,7.15,4.83,11.46,4.83s8.37-1.72,11.41-4.79c3.1-3.03,4.81-7.11,4.81-11.48ZM80.18,268.62c-3.41,3.45-9.16,3.45-12.58,0-3.4-3.43-3.4-9.22,0-12.65,1.71-1.72,3.94-2.67,6.29-2.67s4.58.95,6.29,2.67c.02.02.03.03.04.04,1.69,1.65,2.62,3.88,2.62,6.28s-.93,4.63-2.67,6.33Z"/>
  <path class="cls-1" d="M90.94,350.11l111.91-113.03c.84-.85,1.2-2.05,1-3.19h0v-.02h0s0-.01,0-.01h0v-.02h0s0,0,0-.01h0v-.02h0s0,0,0-.01h0v-.02c-.05-.22-.12-.44-.2-.66-.52-1.25-1.69-2.1-3.02-2.22h0s-.03,0-.04,0c0,0-.01,0-.02,0h-.03s-.01,0-.02,0h-.02s-.03,0-.04,0h-.01s-.02,0-.02,0h-.04s-.05,0-.08,0H3.64c-.97,0-1.9.39-2.58,1.08C.37,232.66,0,233.59,0,234.56c.51,53.82,21.31,104.54,58.58,142.81.68.7,1.61,1.1,2.59,1.1h.01c.98,0,1.91-.39,2.58-1.07l26.54-26.77c.23-.15.45-.32.64-.52ZM61.23,369.63C27.71,333.91,8.68,287.49,7.34,238.16h30.95c1.33,40.85,17.19,79.39,44.95,109.27l-22,22.2ZM45.56,238.16h145.99l-103.19,104.11c-26.39-28.5-41.47-65.21-42.8-104.11Z"/>
  <path class="cls-1" d="M112.5,298.84l-9.91-5.49c-1.76-.97-3.97-.34-4.93,1.42-.98,1.75-.34,3.97,1.42,4.94l9.91,5.49c.56.31,1.16.46,1.75.46,1.28,0,2.52-.68,3.18-1.88.98-1.75.34-3.96-1.42-4.94Z"/>
  <path class="cls-1" d="M305.34,354.29c-1.62-1.18-3.9-.79-5.07.83l-12.31,17.11c-1.17,1.63-.8,3.9.83,5.07.64.46,1.38.68,2.11.68,1.13,0,2.25-.52,2.96-1.51l12.31-17.11c1.17-1.63.8-3.9-.83-5.07Z"/>
  <path class="cls-1" d="M3.64,219.27h196.74s.05,0,.08,0h0s0,0,.01,0h.03c.87-.06,1.68-.42,2.29-1.01,0,0,.01-.01.02-.02,0,0,0,0,0,0h0s0,0,0,0c0,0,0,0,0,0,0,0,0,0,0,0h0s0,0,0-.01h0s0,0,0,0h0s0,0,0,0h0s0-.01,0-.01c0,0,0,0,0,0,0,0,0,0,0,0h0s0,0,0,0h0s0,0,0,0h0s0-.01,0-.01t0,0h0s0,0,0,0h0s0-.01,0-.01t0,0s0,0,0,0c0,0,0,0,0,0h0s0,0,0,0h0s0-.01.01-.02h0c.28-.3.5-.65.66-1.04.02-.04.03-.08.05-.13h0s0-.01,0-.01h0s0,0,0-.01h0s0-.01,0-.02h0s0-.02,0-.02h0s0-.01,0-.01h0s0-.02,0-.02h0s0-.01,0-.02h0c.18-.54.23-1.1.16-1.65h0s0-.01,0-.02h0v-.02h0s0-.02,0-.02h0v-.02h0v-.02s0,0,0,0h0v-.02h0s0-.02,0-.02h0v-.02h0s0-.01,0-.02h0v-.02h0s0-.01,0-.01h0v-.02h0s0,0,0,0h0v-.02h0s0,0,0-.02h0v-.02h0s0,0,0,0h0v-.02h0s0,0,0-.01h0s0-.02,0-.02h0s0-.02,0-.02h0v-.02h0s0,0,0,0h0v-.02h0s0,0,0,0h0v-.02s0,0,0,0h0s0-.02,0-.02h0v-.02s0,0,0,0h0v-.02s0,0,0,0h0s0-.02,0-.02h0s0-.02,0-.02h0s0-.02,0-.02h0v-.02h0v-.02s0,0,0,0h0s0-.02,0-.02h0v-.02h0v-.02s0,0,0,0h0s0-.02,0-.02h0s0-.01,0-.01h0s0-.02,0-.02h0s0-.01,0-.01h0s0-.02,0-.02h0s0,0,0-.01h0s0-.02,0-.02h0s0,0,0-.01h0s0-.01,0-.01h0s0-.01,0-.01h0s0-.02,0-.02h0s0-.01,0-.01h0s0-.01,0-.02h0s0-.02,0-.02h0s0-.01,0-.01h0s0,0,0-.02h0s0,0,0,0h0s0-.01,0-.01h0s0-.02,0-.02h0s0-.01,0-.01h0s0-.01,0-.01h0s0-.01,0-.01h0s0-.01,0-.01h0s0,0,0-.01h0s0-.01,0-.01h0v-.02s0,0,0,0h0s0-.01,0-.01h0s0,0,0-.01h0s0-.02,0-.02h0s0,0,0,0h0v-.02h0s0,0,0,0h0s0,0,0,0h0s0-.01,0-.01h0s0-.01,0-.01h0s0,0,0-.01h0s0-.01,0-.01h0s0-.01,0-.01h0s0,0,0,0h0s0-.01,0-.01h0s0-.01,0-.01h0s0-.01,0-.01h0s0,0,0,0h0s0,0,0-.01h0s0,0,0-.01h0s0,0,0,0h0s0-.01,0-.01h0s0,0,0-.01h0s0,0,0,0h0s0,0,0-.01h0s0,0,0,0h0s0,0,0,0h0s0-.01,0-.01h0s0,0,0,0h0s0-.01,0-.01h0s0,0,0-.01h0s0-.01,0-.01h0s0-.01,0-.01h0s0,0,0,0c0,0,0,0,0,0h0s0,0,0-.01c0,0,0,0,0,0h0s0,0,0,0c0,0,0,0,0,0h0s0-.01,0-.01c0,0,0,0,0,0h0s0-.01,0-.01h0s0-.01,0-.02c0,0,0,0,0,0,0,0,0,0,0,0,0,0,0,0,0,0h0c-.13-.21-.29-.41-.46-.59l-111.91-113.19c-.21-.22-.46-.4-.72-.56l-26.46-26.73c-.68-.69-1.61-1.08-2.58-1.08h-.02c-.98,0-1.91.4-2.59,1.1C21.31,111.07.51,161.84,0,215.6c0,.97.37,1.9,1.05,2.59.68.69,1.61,1.08,2.58,1.08ZM191.56,212H45.56c1.32-38.99,16.41-75.74,42.78-104.25l103.22,104.25ZM61.23,80.38l21.99,22.21c-27.75,29.88-43.61,68.48-44.94,109.42H7.34c1.34-49.29,20.37-95.76,53.9-131.63Z"/>
  <path class="cls-1" d="M152.13,250.56c-1.82-.79-3.98.06-4.76,1.91l-5.6,13.08c-.79,1.84.07,3.98,1.91,4.77.46.2.95.29,1.43.29,1.41,0,2.75-.83,3.34-2.21l5.6-13.08c.79-1.84-.07-3.98-1.91-4.77Z"/>
  <path class="cls-1" d="M156.96,239.02l-27.01,4.68c-1.98.34-3.3,2.22-2.96,4.2.31,1.77,1.84,3.02,3.57,3.02.21,0,.42-.02.63-.05l27.01-4.68c1.98-.34,3.3-2.22,2.96-4.2-.35-1.98-2.25-3.28-4.2-2.96Z"/>
  <path class="cls-1" d="M286.31,327.89c-4.3-4.42-10.06-6.87-16.25-6.9h-.12c-6.22,0-12.07,2.44-16.49,6.92-8.81,9.1-8.81,23.9.03,33.02,4.4,4.44,10.24,6.89,16.47,6.89h.12c6.19-.03,11.97-2.49,16.24-6.89,9.02-9.11,9.02-23.92.01-33.03ZM281.11,355.84c-2.93,3.02-6.86,4.69-11.09,4.71h-.08c-4.27,0-8.28-1.68-11.27-4.71-6.11-6.31-6.11-16.57-.03-22.85,3.02-3.05,7.03-4.73,11.3-4.73h.08c4.22.02,8.16,1.69,11.09,4.71,0,0,.02.02.02.03,6.23,6.29,6.23,16.53-.02,22.85Z"/>
  <path class="cls-1" d="M129.79,263.62c-3.08-3.11-7.15-4.83-11.45-4.83h0c-4.3,0-8.37,1.72-11.46,4.83-6.39,6.45-6.39,16.57.04,23.08,3.19,3.12,7.28,4.68,11.38,4.68s8.27-1.59,11.52-4.77c6.17-6.43,6.17-16.52,0-22.95-.01-.01-.03-.03-.04-.04ZM124.67,281.5c-3.54,3.47-9.1,3.47-12.62.04-3.55-3.59-3.55-9.22,0-12.81,1.71-1.73,3.94-2.68,6.29-2.68h0c2.34,0,4.56.94,6.26,2.65,3.45,3.62,3.44,9.26.07,12.79Z"/>
</svg>