<svg width="294" height="216" viewBox="0 0 294 216" fill="none" xmlns="http://www.w3.org/2000/svg">
<path d="M282.21 212.77H167.266V214.177C167.266 214.669 166.946 215.072 166.555 215.072C166.163 215.072 165.844 214.669 165.844 214.177C165.844 214.669 165.524 215.072 165.132 215.072C164.741 215.072 164.421 214.669 164.421 214.177C164.421 214.669 164.102 215.072 163.71 215.072C163.319 215.072 162.999 214.669 162.999 214.177V211.896C162.999 213.633 161.88 215.042 160.499 215.042C159.118 215.042 158 213.635 158 211.897C158 210.159 159.119 208.751 160.5 208.751C161.881 208.751 163 210.16 163 211.897V209.617C163 209.124 163.32 208.722 163.711 208.722C164.102 208.722 164.422 209.124 164.422 209.617C164.422 209.124 164.742 208.722 165.133 208.722C165.525 208.722 165.844 209.124 165.844 209.617C165.844 209.124 166.164 208.722 166.555 208.722C166.947 208.722 167.267 209.124 167.267 209.617V211.024H281.542C281.712 207.911 282.785 205.109 284.435 203.034C286.084 200.958 288.309 199.608 290.783 199.394V131.139H289.665C289.273 131.139 288.954 130.736 288.954 130.244C288.954 129.751 289.273 129.349 289.665 129.349C289.273 129.349 288.954 128.946 288.954 128.454C288.954 127.961 289.273 127.559 289.665 127.559C289.273 127.559 288.954 127.156 288.954 126.664C288.954 126.171 289.273 125.769 289.665 125.769H291.477C290.096 125.769 288.977 124.361 288.977 122.623C288.977 120.885 290.096 119.477 291.477 119.477C292.858 119.477 293.977 120.885 293.977 122.623C293.977 124.361 292.858 125.769 291.477 125.769H293.289C293.68 125.769 294 126.171 294 126.664C294 127.156 293.68 127.559 293.289 127.559C293.68 127.559 294 127.961 294 128.454C294 128.946 293.68 129.349 293.289 129.349C293.68 129.349 294 129.751 294 130.244C294 130.736 293.68 131.139 293.289 131.139H292.171V201.109H291.478C289.111 201.109 286.967 202.317 285.417 204.269C283.866 206.221 282.906 208.918 282.906 211.897V212.77H282.212H282.21Z" fill="#FEE3B4"/>
<path d="M286.395 205.503C287.032 204.703 287.911 204.207 288.881 204.207C289.851 204.207 290.731 204.703 291.367 205.503L291.366 205.505C292.003 206.307 292.396 207.414 292.396 208.632C292.396 209.85 292.003 210.955 291.366 211.758L291.364 211.761C290.727 212.562 289.848 213.057 288.881 213.057C287.914 213.057 287.034 212.561 286.397 211.76L286.395 211.762C285.759 210.961 285.366 209.855 285.366 208.633C285.366 207.411 285.76 206.305 286.395 205.504M288.881 205.953C288.293 205.953 287.761 206.253 287.376 206.737C286.991 207.222 286.752 207.892 286.752 208.632C286.752 209.372 286.991 210.042 287.376 210.527V210.53C287.759 211.012 288.291 211.311 288.881 211.311C289.471 211.311 290.003 211.012 290.387 210.53L290.389 210.527C290.773 210.044 291.01 209.374 291.01 208.632C291.01 207.89 290.773 207.22 290.389 206.737H290.387C290.002 206.253 289.469 205.953 288.881 205.953Z" fill="#FEE3B4"/>
<path fill-rule="evenodd" clip-rule="evenodd" d="M279.676 197.047L279.345 196.629C284.975 206.795 280.394 207.96 278.806 204.321C279.803 204.768 280.423 204.559 280.664 203.697C281.214 201.736 278.879 200.799 277.814 203.323C277.167 204.856 277.865 207.594 277.053 208.579C276.003 209.853 273.01 208.242 275.805 204.555C277.387 202.466 277.091 199.444 275.963 197.106C273.146 210.74 259.604 213.208 260.551 206.112C262.249 199.282 271.951 212.353 274.448 194.624C266.441 212.203 265.538 193.201 256.285 206.689C256.163 202.19 257.661 197.708 260.78 193.239C266.675 201.858 277.369 196.142 270.045 186.427C274.694 197.356 264.766 197.569 262.11 190.468C265.285 191.847 267.655 191.27 269.22 188.736C267.361 189.482 265.496 189.002 263.624 187.293C265.518 187.414 266.802 186.741 267.477 185.273C265.868 185.944 264.232 185.635 262.569 184.349C264.238 184.605 265.537 184.336 266.468 183.542C266.468 183.542 265.994 181.905 265.046 178.635C265.734 179.5 268.169 180.333 269.277 180.842C269.909 179.671 270.123 178.036 269.919 175.935C270.941 178.028 271.186 180.086 270.653 182.112C271.819 181.263 272.355 179.646 272.258 177.263C273.616 179.619 273.998 181.967 273.405 184.305C275.418 182.337 275.877 179.354 274.781 175.357C280.423 178.699 280.254 191.195 271.57 185.344C279.289 194.561 283.832 181.101 276.983 173.684C280.533 169.759 284.096 167.873 287.67 168.026C276.953 179.672 292.051 180.809 278.083 190.886C292.17 187.741 281.784 175.532 287.212 173.395C292.851 172.203 290.889 189.246 280.056 192.791C281.913 194.211 284.315 194.584 285.975 192.592C288.904 189.075 290.183 192.842 289.172 194.163C288.388 195.186 286.213 194.307 284.996 195.121C282.99 196.461 283.735 199.4 285.293 198.708C285.978 198.405 286.143 197.624 285.789 196.369C288.68 198.369 287.754 204.134 279.676 197.048" fill="#FEE3B4"/>
<path fill-rule="evenodd" clip-rule="evenodd" d="M250.745 204.563C252.125 204.563 253.245 203.155 253.245 201.417C253.245 199.679 252.126 198.271 250.745 198.271C249.605 198.271 248.643 199.232 248.342 200.545H166.183V207.948H254.718C254.611 201.728 256.614 195.97 260.956 189.346C254.592 195.042 253.824 200.449 253.331 206.202H167.569V202.29H248.343C248.643 203.603 249.605 204.563 250.746 204.563" fill="#FEE3B4"/>
<path fill-rule="evenodd" clip-rule="evenodd" d="M282.456 149.299V122.624H288.338V166.385C283.396 166.25 278.821 168.771 273.557 174.236C278.083 166.227 282.38 165.26 286.951 164.639V124.369H283.842V158.362C284.886 158.74 285.649 159.95 285.649 161.386C285.649 163.124 284.53 164.532 283.149 164.532C281.768 164.532 280.649 163.124 280.649 161.386C280.649 159.951 281.413 158.741 282.456 158.362V149.298V149.299Z" fill="#FEE3B4"/>
<path d="M13.7899 212.628H128.734V214.035C128.734 214.528 129.054 214.93 129.445 214.93C129.837 214.93 130.156 214.528 130.156 214.035C130.156 214.528 130.476 214.93 130.868 214.93C131.259 214.93 131.579 214.528 131.579 214.035C131.579 214.528 131.898 214.93 132.29 214.93C132.681 214.93 133.001 214.528 133.001 214.035V211.755C133.001 213.492 134.12 214.901 135.501 214.901C136.882 214.901 138 213.494 138 211.755C138 210.017 136.881 208.609 135.5 208.609C134.119 208.609 133 210.018 133 211.755V209.475C133 208.982 132.68 208.58 132.289 208.58C131.898 208.58 131.578 208.982 131.578 209.475C131.578 208.982 131.258 208.58 130.867 208.58C130.475 208.58 130.156 208.982 130.156 209.475C130.156 208.982 129.836 208.58 129.445 208.58C129.053 208.58 128.733 208.982 128.733 209.475V210.882H14.4582C14.2878 207.769 13.2149 204.968 11.5654 202.893C9.91592 200.817 7.69069 199.467 5.21725 199.252V130.997H6.33531C6.72668 130.997 7.04646 130.595 7.04646 130.102C7.04646 129.61 6.72668 129.207 6.33531 129.207C6.72668 129.207 7.04646 128.805 7.04646 128.312C7.04646 127.82 6.72668 127.417 6.33531 127.417C6.72668 127.417 7.04646 127.015 7.04646 126.522C7.04646 126.03 6.72668 125.627 6.33531 125.627H4.52322C5.9035 125.627 7.02312 124.219 7.02312 122.481C7.02312 120.743 5.90428 119.335 4.52322 119.335C3.14218 119.335 2.02335 120.743 2.02335 122.481C2.02335 124.219 3.14218 125.627 4.52322 125.627H2.71114C2.31978 125.627 2 126.03 2 126.522C2 127.015 2.31978 127.417 2.71114 127.417C2.31978 127.417 2 127.82 2 128.312C2 128.805 2.31978 129.207 2.71114 129.207C2.31978 129.207 2 129.61 2 130.102C2 130.595 2.31978 130.997 2.71114 130.997H3.82921V200.968H4.52245C6.8893 200.968 9.03284 202.175 10.5835 204.128C12.1342 206.079 13.0943 208.777 13.0943 211.755V212.628H13.7875H13.7899Z" fill="#FEE3B4"/>
<path d="M9.60467 205.362C8.96822 204.561 8.08901 204.065 7.11878 204.065C6.14855 204.065 5.26935 204.561 4.6329 205.362L4.63446 205.364C3.99723 206.166 3.60354 207.272 3.60354 208.49C3.60354 209.709 3.99723 210.813 4.63368 211.616L4.63601 211.619C5.27324 212.42 6.15166 212.915 7.11878 212.915C8.0859 212.915 8.96588 212.419 9.60311 211.618L9.60467 211.62C10.2411 210.819 10.634 209.713 10.634 208.491C10.634 207.269 10.2403 206.164 9.60467 205.363M7.11878 205.811C7.70699 205.811 8.23918 206.111 8.62431 206.596C9.00945 207.08 9.24753 207.75 9.24753 208.49C9.24753 209.231 9.00945 209.9 8.62431 210.385V210.388C8.24073 210.871 7.70854 211.17 7.11878 211.17C6.52901 211.17 5.99683 210.871 5.61325 210.388L5.61091 210.385C5.22733 209.902 4.99002 209.233 4.99002 208.49C4.99002 207.748 5.22733 207.078 5.61091 206.596H5.61325C5.99838 206.111 6.53057 205.811 7.11878 205.811Z" fill="#FEE3B4"/>
<path fill-rule="evenodd" clip-rule="evenodd" d="M16.3238 196.905L16.6553 196.487C11.0245 206.653 15.6057 207.818 17.1945 204.179C16.197 204.626 15.5769 204.417 15.3357 203.556C14.7864 201.594 17.1213 200.657 18.1865 203.182C18.8331 204.714 18.1351 207.452 18.9474 208.437C19.997 209.711 22.9902 208.1 20.1954 204.414C18.6129 202.325 18.9093 199.302 20.0375 196.965C22.854 210.598 36.3961 213.067 35.4492 205.97C33.7507 199.141 24.0491 212.212 21.5516 194.482C29.5585 212.061 30.4619 193.06 39.7153 206.547C39.8374 202.049 38.3389 197.566 35.2197 193.097C29.3251 201.717 18.6308 196 25.9546 186.286C21.3057 197.214 31.2345 197.427 33.89 190.327C30.7147 191.705 28.3448 191.129 26.7801 188.595C28.6389 189.341 30.5039 188.86 32.3759 187.151C30.4821 187.273 29.1983 186.599 28.5229 185.131C30.132 185.802 31.7682 185.493 33.4309 184.208C31.762 184.463 30.4626 184.194 29.5321 183.4C29.5321 183.4 30.0059 181.764 30.9536 178.493C30.2658 179.359 27.8313 180.191 26.7225 180.7C26.0908 179.529 25.8768 177.894 26.0806 175.794C25.0591 177.886 24.814 179.944 25.3469 181.97C24.1806 181.121 23.6453 179.505 23.7418 177.121C22.3841 179.477 22.0021 181.825 22.595 184.164C20.5821 182.196 20.1231 179.213 21.2186 175.216C15.5769 178.558 15.7457 191.053 24.4296 185.203C16.7105 194.42 12.1682 180.96 19.0175 173.542C15.4672 169.618 11.9045 167.732 8.33011 167.885C19.047 179.53 3.94888 180.667 17.9165 190.744C3.82984 187.6 14.2161 175.39 8.78838 173.254C3.14904 172.062 5.1113 189.105 15.9441 192.649C14.0869 194.069 11.6851 194.442 10.0255 192.451C7.09611 188.933 5.81699 192.7 6.82846 194.021C7.61196 195.045 9.7874 194.165 11.0043 194.979C13.0101 196.319 12.2647 199.258 10.7071 198.567C10.0224 198.263 9.85665 197.483 10.2114 196.227C7.32019 198.227 8.24608 203.992 16.3238 196.906" fill="#FEE3B4"/>
<path fill-rule="evenodd" clip-rule="evenodd" d="M45.2551 204.422C43.8748 204.422 42.7552 203.014 42.7552 201.276C42.7552 199.538 43.874 198.129 45.2551 198.129C46.3949 198.129 47.3566 199.09 47.6577 200.403H129.817V207.806H41.2816C41.3889 201.586 39.3862 195.828 35.0439 189.204C41.4076 194.9 42.1755 200.307 42.6688 206.06H128.431V202.148H47.6569C47.3566 203.461 46.3949 204.422 45.2543 204.422" fill="#FEE3B4"/>
<path fill-rule="evenodd" clip-rule="evenodd" d="M13.544 149.158V122.482H7.66192V166.244C12.6041 166.109 17.1791 168.629 22.4426 174.094C17.9167 166.085 13.6203 165.119 9.0492 164.498V124.227H12.1575V158.22C11.1142 158.598 10.3509 159.808 10.3509 161.244C10.3509 162.982 11.4697 164.39 12.8508 164.39C14.2318 164.39 15.3507 162.982 15.3507 161.244C15.3507 159.809 14.5874 158.599 13.544 158.22V149.157V149.158Z" fill="#FEE3B4"/>
<path d="M11.7899 2.30173H126.734V0.894623C126.734 0.402092 127.054 -0.000366211 127.445 -0.000366211C127.837 -0.000366211 128.156 0.402092 128.156 0.894623C128.156 0.402092 128.476 -0.000366211 128.868 -0.000366211C129.259 -0.000366211 129.579 0.402092 129.579 0.894623C129.579 0.402092 129.898 -0.000366211 130.29 -0.000366211C130.681 -0.000366211 131.001 0.402092 131.001 0.894623V3.17517C131.001 1.43808 132.12 0.0290146 133.501 0.0290146C134.882 0.0290146 136 1.43612 136 3.17419C136 4.91227 134.881 6.32035 133.5 6.32035C132.119 6.32035 131 4.91129 131 3.17419V5.45474C131 5.94728 130.68 6.34972 130.289 6.34972C129.898 6.34972 129.578 5.94728 129.578 5.45474C129.578 5.94728 129.258 6.34972 128.867 6.34972C128.475 6.34972 128.156 5.94728 128.156 5.45474C128.156 5.94728 127.836 6.34972 127.445 6.34972C127.053 6.34972 126.733 5.94728 126.733 5.45474V4.04764H12.4582C12.2878 7.16051 11.2149 9.96199 9.5654 12.0369C7.91592 14.1128 5.69069 15.4631 3.21725 15.6776V83.9325H4.33531C4.72668 83.9325 5.04646 84.3349 5.04646 84.8275C5.04646 85.32 4.72668 85.7225 4.33531 85.7225C4.72668 85.7225 5.04646 86.1249 5.04646 86.6174C5.04646 87.11 4.72668 87.5124 4.33531 87.5124C4.72668 87.5124 5.04646 87.9149 5.04646 88.4074C5.04646 88.9 4.72668 89.3024 4.33531 89.3024H2.52322C3.9035 89.3024 5.02312 90.7105 5.02312 92.4486C5.02312 94.1866 3.90428 95.5947 2.52322 95.5947C1.14218 95.5947 0.0233459 94.1866 0.0233459 92.4486C0.0233459 90.7105 1.14218 89.3024 2.52322 89.3024H0.711136C0.319778 89.3024 0 88.9 0 88.4074C0 87.9149 0.319778 87.5124 0.711136 87.5124C0.319778 87.5124 0 87.11 0 86.6174C0 86.1249 0.319778 85.7225 0.711136 85.7225C0.319778 85.7225 0 85.32 0 84.8275C0 84.3349 0.319778 83.9325 0.711136 83.9325H1.82921V13.962H2.52245C4.8893 13.962 7.03284 12.7547 8.5835 10.8021C10.1342 8.8506 11.0943 6.15291 11.0943 3.17419V2.30173H11.7875H11.7899Z" fill="#FEE3B4"/>
<path d="M7.60467 9.5678C6.96822 10.3688 6.08901 10.8643 5.11878 10.8643C4.14855 10.8643 3.26935 10.3688 2.6329 9.5678L2.63446 9.56584C1.99723 8.76388 1.60354 7.65739 1.60354 6.43927C1.60354 5.22115 1.99723 4.11661 2.63368 3.31366L2.63601 3.31073C3.27324 2.50975 4.15166 2.01427 5.11878 2.01427C6.0859 2.01427 6.96588 2.51073 7.60311 3.31171L7.60467 3.30975C8.24112 4.11073 8.63403 5.21625 8.63403 6.43829C8.63403 7.66032 8.24034 8.76584 7.60467 9.56682M5.11878 9.11835C5.70699 9.11835 6.23918 8.81871 6.62431 8.33401C7.00945 7.84931 7.24753 7.17954 7.24753 6.43927C7.24753 5.69899 7.00945 5.02922 6.62431 4.54452V4.54158C6.24073 4.05884 5.70854 3.76018 5.11878 3.76018C4.52901 3.76018 3.99683 4.05884 3.61325 4.54158L3.61091 4.54452C3.22733 5.02726 2.99002 5.69703 2.99002 6.43927C2.99002 7.1815 3.22733 7.85127 3.61091 8.33401H3.61325C3.99838 8.81871 4.53057 9.11835 5.11878 9.11835Z" fill="#FEE3B4"/>
<path fill-rule="evenodd" clip-rule="evenodd" d="M14.3238 18.0247L14.6553 18.4428C9.02451 8.27675 13.6057 7.1115 15.1945 10.7502C14.197 10.3037 13.5769 10.5123 13.3357 11.3739C12.7864 13.3353 15.1213 14.2724 16.1865 11.748C16.8331 10.2156 16.1351 7.47773 16.9474 6.49265C17.997 5.21872 20.9902 6.8295 18.1954 10.5162C16.6129 12.6048 16.9093 15.6276 18.0375 17.9649C20.854 4.33156 34.3961 1.86301 33.4492 8.95925C31.7507 15.7892 22.0491 2.71785 19.5516 20.4472C27.5585 2.86864 28.4619 21.87 37.7153 8.3825C37.8374 12.8809 36.3389 17.3637 33.2197 21.8328C27.3251 13.2129 16.6308 18.9294 23.9546 28.6441C19.3057 17.7152 29.2345 17.5027 31.89 24.6029C28.7147 23.2242 26.3448 23.8009 24.7801 26.3351C26.6389 25.589 28.5039 26.0697 30.3759 27.7784C28.4821 27.657 27.1983 28.3307 26.5229 29.7985C28.132 29.1278 29.7682 29.4362 31.4309 30.7219C29.762 30.4663 28.4626 30.7356 27.5321 31.5297C27.5321 31.5297 28.0059 33.166 28.9536 36.4365C28.2658 35.5709 25.8313 34.7386 24.7225 34.2294C24.0908 35.4005 23.8768 37.0358 24.0806 39.1361C23.0591 37.0436 22.814 34.9853 23.3469 32.9594C22.1806 33.8083 21.6453 35.425 21.7418 37.8084C20.3841 35.4524 20.0021 33.1043 20.595 30.766C18.5821 32.7342 18.1231 35.7168 19.2186 39.7139C13.5769 36.3719 13.7457 23.8763 22.4296 29.727C14.7105 20.5099 10.1682 33.9699 17.0175 41.3873C13.4672 45.3119 9.90449 47.1979 6.33011 47.0451C17.047 35.3995 1.94888 34.2627 15.9165 24.1858C1.82984 27.33 12.2161 39.5396 6.78838 41.6762C1.14904 42.8679 3.1113 25.8249 13.9441 22.2802C12.0869 20.8604 9.68507 20.4873 8.02548 22.479C5.09611 25.9963 3.81699 22.2293 4.82846 20.9084C5.61196 19.8851 7.7874 20.7645 9.00428 19.9507C11.0101 18.6102 10.2647 15.6716 8.70706 16.363C8.02237 16.6665 7.85665 17.4469 8.21144 18.7023C5.32019 16.7027 6.24608 10.9372 14.3238 18.0237" fill="#FEE3B4"/>
<path fill-rule="evenodd" clip-rule="evenodd" d="M43.2551 10.5079C41.8748 10.5079 40.7552 11.916 40.7552 13.654C40.7552 15.3921 41.874 16.8002 43.2551 16.8002C44.3949 16.8002 45.3566 15.8396 45.6577 14.5265H127.817V7.12378H39.2816C39.3889 13.3436 37.3862 19.1013 33.0439 25.7256C39.4076 20.0296 40.1755 14.6225 40.6688 8.86969H126.431V12.7816H45.6569C45.3566 11.4685 44.3949 10.5079 43.2543 10.5079" fill="#FEE3B4"/>
<path fill-rule="evenodd" clip-rule="evenodd" d="M11.544 65.772V92.4473H5.66192V48.686C10.6041 48.8211 15.1791 46.3006 20.4426 40.8357C15.9167 48.8446 11.6203 49.8111 7.0492 50.4319V90.7023H10.1575V56.7095C9.11415 56.3315 8.35088 55.1213 8.35088 53.6857C8.35088 51.9477 9.46972 50.5396 10.8508 50.5396C12.2318 50.5396 13.3507 51.9477 13.3507 53.6857C13.3507 55.1203 12.5874 56.3306 11.544 56.7095V65.773V65.772Z" fill="#FEE3B4"/>
<path d="M282.21 2.30173H167.266V0.894623C167.266 0.402092 166.946 -0.000366211 166.555 -0.000366211C166.163 -0.000366211 165.844 0.402092 165.844 0.894623C165.844 0.402092 165.524 -0.000366211 165.132 -0.000366211C164.741 -0.000366211 164.421 0.402092 164.421 0.894623C164.421 0.402092 164.102 -0.000366211 163.71 -0.000366211C163.319 -0.000366211 162.999 0.402092 162.999 0.894623V3.17517C162.999 1.43808 161.88 0.0290146 160.499 0.0290146C159.118 0.0290146 158 1.43612 158 3.17419C158 4.91227 159.119 6.32035 160.5 6.32035C161.881 6.32035 163 4.91129 163 3.17419V5.45474C163 5.94728 163.32 6.34972 163.711 6.34972C164.102 6.34972 164.422 5.94728 164.422 5.45474C164.422 5.94728 164.742 6.34972 165.133 6.34972C165.525 6.34972 165.844 5.94728 165.844 5.45474C165.844 5.94728 166.164 6.34972 166.555 6.34972C166.947 6.34972 167.267 5.94728 167.267 5.45474V4.04764H281.542C281.712 7.16051 282.785 9.96199 284.435 12.0369C286.084 14.1128 288.309 15.4631 290.783 15.6776V83.9325H289.665C289.273 83.9325 288.954 84.3349 288.954 84.8275C288.954 85.32 289.273 85.7225 289.665 85.7225C289.273 85.7225 288.954 86.1249 288.954 86.6174C288.954 87.11 289.273 87.5124 289.665 87.5124C289.273 87.5124 288.954 87.9149 288.954 88.4074C288.954 88.9 289.273 89.3024 289.665 89.3024H291.477C290.096 89.3024 288.977 90.7105 288.977 92.4486C288.977 94.1866 290.096 95.5947 291.477 95.5947C292.858 95.5947 293.977 94.1866 293.977 92.4486C293.977 90.7105 292.858 89.3024 291.477 89.3024H293.289C293.68 89.3024 294 88.9 294 88.4074C294 87.9149 293.68 87.5124 293.289 87.5124C293.68 87.5124 294 87.11 294 86.6174C294 86.1249 293.68 85.7225 293.289 85.7225C293.68 85.7225 294 85.32 294 84.8275C294 84.3349 293.68 83.9325 293.289 83.9325H292.171V13.962H291.478C289.111 13.962 286.967 12.7547 285.417 10.8021C283.866 8.8506 282.906 6.15291 282.906 3.17419V2.30173H282.212H282.21Z" fill="#FEE3B4"/>
<path d="M286.395 9.5678C287.032 10.3688 287.911 10.8643 288.881 10.8643C289.851 10.8643 290.731 10.3688 291.367 9.5678L291.366 9.56584C292.003 8.76388 292.396 7.65739 292.396 6.43927C292.396 5.22115 292.003 4.11661 291.366 3.31366L291.364 3.31073C290.727 2.50975 289.848 2.01427 288.881 2.01427C287.914 2.01427 287.034 2.51073 286.397 3.31171L286.395 3.30975C285.759 4.11073 285.366 5.21625 285.366 6.43829C285.366 7.66032 285.76 8.76584 286.395 9.56682M288.881 9.11835C288.293 9.11835 287.761 8.81871 287.376 8.33401C286.991 7.84931 286.752 7.17954 286.752 6.43927C286.752 5.69899 286.991 5.02922 287.376 4.54452V4.54158C287.759 4.05884 288.291 3.76018 288.881 3.76018C289.471 3.76018 290.003 4.05884 290.387 4.54158L290.389 4.54452C290.773 5.02726 291.01 5.69703 291.01 6.43927C291.01 7.1815 290.773 7.85127 290.389 8.33401H290.387C290.002 8.81871 289.469 9.11835 288.881 9.11835Z" fill="#FEE3B4"/>
<path fill-rule="evenodd" clip-rule="evenodd" d="M279.676 18.0247L279.345 18.4428C284.975 8.27675 280.394 7.1115 278.806 10.7502C279.803 10.3037 280.423 10.5123 280.664 11.3739C281.214 13.3353 278.879 14.2724 277.814 11.748C277.167 10.2156 277.865 7.47773 277.053 6.49265C276.003 5.21872 273.01 6.8295 275.805 10.5162C277.387 12.6048 277.091 15.6276 275.963 17.9649C273.146 4.33156 259.604 1.86301 260.551 8.95925C262.249 15.7892 271.951 2.71785 274.448 20.4472C266.441 2.86864 265.538 21.87 256.285 8.3825C256.163 12.8809 257.661 17.3637 260.78 21.8328C266.675 13.2129 277.369 18.9294 270.045 28.6441C274.694 17.7152 264.766 17.5027 262.11 24.6029C265.285 23.2242 267.655 23.8009 269.22 26.3351C267.361 25.589 265.496 26.0697 263.624 27.7784C265.518 27.657 266.802 28.3307 267.477 29.7985C265.868 29.1278 264.232 29.4362 262.569 30.7219C264.238 30.4663 265.537 30.7356 266.468 31.5297C266.468 31.5297 265.994 33.166 265.046 36.4365C265.734 35.5709 268.169 34.7386 269.277 34.2294C269.909 35.4005 270.123 37.0358 269.919 39.1361C270.941 37.0436 271.186 34.9853 270.653 32.9594C271.819 33.8083 272.355 35.425 272.258 37.8084C273.616 35.4524 273.998 33.1043 273.405 30.766C275.418 32.7342 275.877 35.7168 274.781 39.7139C280.423 36.3719 280.254 23.8763 271.57 29.727C279.289 20.5099 283.832 33.9699 276.983 41.3873C280.533 45.3119 284.096 47.1979 287.67 47.0451C276.953 35.3995 292.051 34.2627 278.083 24.1858C292.17 27.33 281.784 39.5396 287.212 41.6762C292.851 42.8679 290.889 25.8249 280.056 22.2802C281.913 20.8604 284.315 20.4873 285.975 22.479C288.904 25.9963 290.183 22.2293 289.172 20.9084C288.388 19.8851 286.213 20.7645 284.996 19.9507C282.99 18.6102 283.735 15.6716 285.293 16.363C285.978 16.6665 286.143 17.4469 285.789 18.7023C288.68 16.7027 287.754 10.9372 279.676 18.0237" fill="#FEE3B4"/>
<path fill-rule="evenodd" clip-rule="evenodd" d="M250.745 10.5079C252.125 10.5079 253.245 11.916 253.245 13.654C253.245 15.3921 252.126 16.8002 250.745 16.8002C249.605 16.8002 248.643 15.8396 248.342 14.5265H166.183V7.12378H254.718C254.611 13.3436 256.614 19.1013 260.956 25.7256C254.592 20.0296 253.824 14.6225 253.331 8.86969H167.569V12.7816H248.343C248.643 11.4685 249.605 10.5079 250.746 10.5079" fill="#FEE3B4"/>
<path fill-rule="evenodd" clip-rule="evenodd" d="M282.456 65.772V92.4473H288.338V48.686C283.396 48.8211 278.821 46.3006 273.557 40.8357C278.083 48.8446 282.38 49.8111 286.951 50.4319V90.7023H283.842V56.7095C284.886 56.3315 285.649 55.1213 285.649 53.6857C285.649 51.9477 284.53 50.5396 283.149 50.5396C281.768 50.5396 280.649 51.9477 280.649 53.6857C280.649 55.1203 281.413 56.3306 282.456 56.7095V65.773V65.772Z" fill="#FEE3B4"/>
</svg>
