<svg width="42" height="31" viewBox="0 0 42 31" fill="none" xmlns="http://www.w3.org/2000/svg">
<path d="M23.285 1.08579C22.8634 0.422251 21.9726 0 20.9943 0C20.016 0 19.1331 0.422251 18.7036 1.08579L13.5894 9.06634L2.16789 10.3452C1.21345 10.4537 0.418082 10.9604 0.123795 11.6541C-0.170492 12.3478 0.0681188 13.1139 0.752137 13.6267L9.03989 19.8458L7.08328 28.6347C6.9242 29.3585 7.32189 30.0945 8.1093 30.5227C8.89672 30.951 9.93865 31.0053 10.7977 30.6615L21.0022 26.5295L31.2068 30.6615C32.0658 31.0053 33.1078 30.9571 33.8952 30.5227C34.6826 30.0884 35.0803 29.3585 34.9212 28.6347L32.9566 19.8458L41.2444 13.6267C41.9284 13.1139 42.175 12.3478 41.8727 11.6541C41.5705 10.9604 40.7831 10.4537 39.8286 10.3452L28.3992 9.06634L23.285 1.08579Z" fill="#FCE4B6"/>
</svg>
