<?xml version="1.0" encoding="UTF-8"?>
<svg id="Layer_2" xmlns="http://www.w3.org/2000/svg" viewBox="0 0 314.62 106.8">
  <defs>
    <style>
      .cls-1 {
        fill: #ffffff;
      }
    </style>
  </defs>
  <g id="Ebene_1">
    <path class="cls-1"
      d="M314.35,29.71c-.25-.57-1.02-.98-3.94-.19-2.92.78-3.34.24-3.34.24,0,0-1.06-.51-1-2.34.02-.61.23-2.05.24-3.24.52-.08,1.01-.27.91-.73-.11-.45-.67-.82-1.23-1.1-.44-.93-1.21-1.77-1.07-2.26.24-.79,1.15-1.55,2.42-2.06,1.99-.81,3.96-3.1,3.27-3.52-.66-.39-1.24-.33-2.42-.3-.46.01-1.06.2-2.91-1.27-1.12-.89-2.37-1.17-3.4-1.1-.12-.36-.24-.8-.12-.93.23-.25.35-.41.49-1.07.15-.66.37-1.33-.06-3.15-.44-1.82-.13-2.16.16-2.8.28-.64.11-1.18-.19-.95-.29.23-.72,1.07-.76,1.76-.04.69-.1,1.96.12,3.05.21,1.08-.08,2.64-1.11,2.65-1.02.02-1.94.04-2.45-.58-.52-.62-.9-1.47-1.02-2.09-.12-.62-.46-.44-.4.06.08.81.38,2.28.98,2.7,0,0-2.05-.03-2.31-.66-.27-.63-.46-1.78-.82-2.6-.37-.81-1.23-2.21-1.36-2.83-.12-.62-.56-.4-.42.08.13.48.25,1.25.65,1.91.4.67,1.07,2.96.82,3.08-.25.11-1.97-1.31-2.47-2.3-.5-.99-1.47-1.72-1.69-3.65-.21-1.94-.29-3.59-.72-3.51-.44.09.14,3.66-.03,4.03-.16.37-1.3.67-2.19-.89-.89-1.56-.7-1.46-.96-1.38-.26.08.44,1.48.76,2.07.32.58,1.83,1.51,2.35,1.99.5.48,1.47,1.75,2.11,2.68.63.93,3.09,2.84,5.14,3,2.05.16,2.33.03,2.97.08.58.05.86.47.99.78-.18.14-.31.3-.38.47,0,0-1.16-1.25-3.75-.83,0,0-.1,1.37.83,2.42-.14-.04-.27-.09-.39-.18-.56-.41-1.06-1.03-1.3-1.52-.24-.49-.47-.26-.32.14.24.65.82,1.8,1.4,2.03,0,0-1.7.42-2.06-.05-.35-.47-.77-1.38-1.25-1.97-.48-.6-1.5-1.56-1.73-2.05-.24-.49-.55-.21-.33.16.21.37.47.98.96,1.44.49.47,1.53,2.22,1.35,2.37-.19.15-1.91-.66-2.54-1.37-.64-.71-1.59-1.1-2.19-2.66-.6-1.56-1.02-2.91-1.37-2.75-.34.17.92,3,.86,3.34-.05.34-.93.83-2.01-.27-1.08-1.1-.9-1.06-1.09-.93-.19.12.68,1.13,1.07,1.55.39.41,1.85.85,2.37,1.14.52.29,1.61,1.13,2.33,1.76.72.63,3.18,1.68,4.9,1.37,1.35-.24,2.34-.42,2.95-.58.08.02.18.05.26.07,0,0,.44,2.34.71,3.68.05.27.1.68.1,1.18-.39.04-.69.17-.82.46-.21.49.13.75.74.88-.06.42-.15.86-.27,1.32-2.06-.65-4.01-1.59-6.1-2.16-3.04-.84-6.31-.74-9.38-.16-5.35,1.01-10.12,3.82-14.61,6.78h0c-3.26,2.02-6.78,3.58-10.45,4.69-3.19.97-6.29,1.27-9.6,1.32-.88.01-1.76.06-2.64.1-.38-.62-.76-1.16-.65-1.51.23-.8,1.15-1.55,2.41-2.06,1.99-.81,3.96-3.1,3.26-3.52-.65-.39-1.24-.33-2.42-.3-.46,0-1.06.2-2.91-1.27-1.12-.89-2.37-1.18-3.4-1.1-.13-.37-.24-.8-.12-.93.23-.25.35-.41.49-1.07.14-.66.37-1.33-.06-3.15-.44-1.82-.12-2.16.16-2.79.28-.64.1-1.18-.19-.95-.29.23-.72,1.06-.76,1.76-.04.69-.1,1.96.12,3.05.21,1.08-.09,2.64-1.11,2.66-1.02.02-1.94.03-2.45-.58-.52-.63-.89-1.47-1.02-2.1-.12-.62-.45-.44-.4.06.08.81.38,2.28.98,2.7,0,0-2.06-.03-2.32-.66-.27-.63-.46-1.78-.82-2.6-.37-.81-1.23-2.21-1.36-2.83-.13-.63-.55-.4-.43.08.13.48.25,1.25.66,1.92.41.66,1.07,2.96.82,3.08-.25.12-1.97-1.31-2.48-2.31-.5-.99-1.47-1.72-1.68-3.66-.22-1.93-.29-3.59-.72-3.5-.44.09.14,3.66-.03,4.03-.16.38-1.3.67-2.19-.89-.89-1.56-.7-1.46-.96-1.38-.26.09.43,1.48.76,2.07.32.59,1.84,1.51,2.35,1.99.5.48,1.47,1.75,2.11,2.69.63.93,3.1,2.84,5.14,3,2.04.16,2.33.03,2.97.09.58.04.86.47.99.78-.18.14-.31.3-.38.47,0,0-1.16-1.25-3.75-.83,0,0-.1,1.37.83,2.42-.14-.03-.27-.09-.39-.18-.56-.41-1.06-1.02-1.3-1.51-.24-.49-.47-.27-.32.14.24.65.81,1.8,1.4,2.03,0,0-1.71.41-2.06-.05-.36-.47-.77-1.38-1.25-1.97-.48-.59-1.49-1.57-1.73-2.05-.24-.49-.55-.21-.34.16.22.37.48.98.96,1.44.49.47,1.53,2.22,1.35,2.37-.18.15-1.91-.66-2.55-1.37-.63-.71-1.59-1.11-2.19-2.66-.6-1.56-1.02-2.92-1.36-2.75-.34.17.91,3,.85,3.34-.05.35-.93.83-2.01-.26-1.08-1.1-.9-1.06-1.09-.93-.19.13.68,1.14,1.07,1.55.4.41,1.85.85,2.37,1.14.52.29,1.6,1.13,2.32,1.77.72.64,3.18,1.68,4.9,1.37,1.35-.25,2.34-.42,2.95-.59.08.03.17.05.27.07,0,0,.43,2.34.71,3.68.06.27.1.68.1,1.17-.4.04-.7.18-.82.48-.15.35.16.59.75.76-.06.45-.15.93-.28,1.42-.93-.29-1.86-.62-2.74-.97-2.93-1.16-5.78-1.85-8.95-1.79-6.74.14-12.81,3.54-18.29,7.16,0,0,0,0,0,0-2.97,1.78-6.16,3.16-9.44,4.27-3.28,1.11-6.8,1.97-10.28,1.82-.96-.05-1.94.01-2.92.07-.38-.61-.74-1.14-.64-1.48.24-.8,1.15-1.55,2.42-2.06,1.99-.81,3.96-3.11,3.26-3.52-.65-.39-1.23-.33-2.42-.3-.46,0-1.07.2-2.91-1.27-1.12-.89-2.37-1.18-3.39-1.1-.13-.37-.23-.8-.12-.93.22-.25.35-.41.49-1.07.14-.66.37-1.33-.06-3.16-.44-1.82-.12-2.16.15-2.8.29-.64.11-1.18-.19-.95-.29.23-.71,1.07-.76,1.76-.04.69-.1,1.96.12,3.05.22,1.08-.09,2.64-1.11,2.66-1.02.02-1.93.03-2.45-.59-.51-.63-.89-1.47-1.01-2.09-.12-.62-.45-.44-.4.06.09.81.39,2.28.98,2.7,0,0-2.05-.03-2.31-.66-.26-.63-.46-1.78-.83-2.6-.36-.81-1.22-2.21-1.35-2.83-.12-.62-.55-.4-.43.08.13.49.25,1.25.66,1.92.41.67,1.07,2.96.82,3.08-.25.12-1.96-1.31-2.47-2.3-.5-.99-1.46-1.72-1.69-3.66-.22-1.94-.29-3.59-.72-3.5-.43.09.14,3.66-.02,4.03-.16.38-1.3.67-2.19-.89-.89-1.56-.7-1.46-.96-1.38-.26.08.43,1.48.75,2.07.32.59,1.84,1.51,2.34,1.99.5.48,1.48,1.75,2.11,2.69.62.93,3.09,2.84,5.14,3,2.04.16,2.33.03,2.97.08.58.05.86.47.99.78-.18.14-.32.3-.38.47,0,0-1.16-1.25-3.75-.83,0,0-.11,1.37.83,2.42-.14-.03-.27-.09-.39-.18-.56-.41-1.06-1.03-1.3-1.51-.24-.49-.47-.27-.32.14.24.65.81,1.8,1.4,2.02,0,0-1.71.42-2.06-.05-.36-.47-.77-1.38-1.25-1.97-.48-.59-1.49-1.56-1.73-2.05-.24-.49-.54-.21-.34.16.22.37.48.98.96,1.44.48.47,1.53,2.22,1.35,2.37-.18.16-1.92-.66-2.54-1.37-.64-.71-1.59-1.1-2.19-2.66-.61-1.56-1.02-2.91-1.36-2.75-.34.17.91,3,.86,3.34-.05.35-.93.84-2.01-.26-1.07-1.1-.9-1.06-1.09-.93-.19.13.68,1.13,1.07,1.55.39.41,1.85.85,2.37,1.14.53.29,1.6,1.13,2.33,1.77.72.64,3.18,1.68,4.9,1.37,1.35-.24,2.34-.42,2.95-.58.08.02.18.05.27.06,0,0,.44,2.34.71,3.68.05.27.09.68.1,1.17-.4.04-.7.18-.82.47-.17.4.2.66.74.84-.05.43-.14.89-.27,1.35-.58-.17-1.15-.36-1.71-.57-2.91-1.09-5.55-2.06-8.7-2.19-7.31-.3-13.96,3.43-19.84,7.34-6.06,3.47-12.49,6.24-19.59,5.9-.82-.04-1.65,0-2.47.04-.01-.1-.03-.21-.05-.3-.29-1.17-1.48-2.28-1.31-2.87.25-.8,1.15-1.55,2.42-2.06,2-.81,3.97-3.1,3.27-3.52-.65-.39-1.24-.32-2.42-.3-.46,0-1.07.2-2.91-1.27-1.12-.89-2.38-1.18-3.4-1.1-.13-.36-.24-.8-.12-.93.22-.25.35-.41.49-1.07.14-.66.36-1.33-.07-3.16-.43-1.82-.13-2.16.16-2.79.28-.64.1-1.18-.19-.95-.3.23-.72,1.06-.76,1.75-.04.69-.09,1.97.12,3.05.22,1.08-.08,2.64-1.1,2.66-1.02.02-1.94.04-2.45-.58-.52-.63-.89-1.48-1.02-2.1-.12-.62-.46-.44-.41.06.08.81.39,2.28.99,2.71,0,0-2.05-.03-2.32-.67-.26-.63-.46-1.78-.83-2.6-.37-.81-1.22-2.21-1.35-2.83-.13-.62-.56-.4-.43.09.13.48.25,1.24.66,1.91.41.67,1.07,2.96.82,3.08-.25.12-1.97-1.31-2.47-2.31-.51-.99-1.47-1.72-1.68-3.65-.22-1.94-.29-3.59-.73-3.5-.44.08.14,3.65-.02,4.03-.17.38-1.3.67-2.19-.89-.89-1.56-.7-1.46-.96-1.38-.25.09.43,1.49.75,2.07.32.58,1.84,1.51,2.34,1.99.5.48,1.47,1.75,2.1,2.68.63.93,3.09,2.84,5.14,3,2.05.16,2.33.03,2.97.08.57.04.86.47.99.77-.18.14-.32.3-.39.48,0,0-1.16-1.25-3.74-.83,0,0-.11,1.37.82,2.42-.14-.03-.27-.09-.38-.18-.56-.4-1.06-1.02-1.3-1.51-.24-.49-.47-.27-.32.14.24.65.81,1.8,1.4,2.02,0,0-1.71.42-2.06-.05-.36-.46-.77-1.38-1.25-1.97-.48-.6-1.49-1.57-1.73-2.05-.24-.49-.55-.21-.33.16.21.37.48.98.95,1.45.48.47,1.53,2.22,1.35,2.37-.18.15-1.91-.66-2.55-1.37-.63-.71-1.59-1.11-2.19-2.66-.6-1.56-1.02-2.91-1.36-2.75-.34.17.91,3,.85,3.34-.05.34-.93.84-2.01-.26-1.08-1.1-.9-1.06-1.09-.93-.2.13.68,1.13,1.07,1.55.39.41,1.85.85,2.37,1.14.52.28,1.6,1.13,2.33,1.76.72.63,3.18,1.68,4.9,1.37,1.35-.24,2.34-.42,2.95-.58.09.03.17.05.27.07,0,0,.44,2.34.71,3.68.12.58.18,1.76-.08,3.1-.3.15-.48.41-.17.72-.14.49-.32.98-.55,1.46-.41-.14-.81-.29-1.19-.43-2.19-.85-4.31-1.53-6.59-2.04-10.26-2.3-20.79-3.69-31.31-2.66-12.05,1.18-23.9,5.57-33.09,13.49-1.14.86-2.24,1.78-3.28,2.77-.43.41-.87.84-1.31,1.29-.11-.11-.18-.24-.19-.41-.02-.66-.1-1.19-.45-1.14-.51.08-2.05,1.85-2.05,1.85h-.02c-.34-.17-.81-.16-1.29,0-.48.15-.86.42-1.01.76l-5.59,1.82c-.27-.18-.5-.27-.5-.27.04-1.41-1.7-1.59-1.7-1.59-.47-1.25-2.27-1.28-2.56-1.27,0-.02,0-.04,0-.06.07-.02.15-.03.23-.05.72-.17.61-1.2-.03-1.5-.55-.25-1.69-.92-1.69-.92-.55-.4-.23-.91-.32-1.19-.1-.29-.27-.62-.49-.92.17-.43.19-.82-.09-1.12-.88-.93-1.66-1.34-2.6-.85-.85-.35-2.84-1.07-4.43-.82-3.36.52-4.59,1.85-5.13,4.76-.4,2.18.79,3.97-1.61,3.82.02-.81-.6-1.49-1.41-1.54-.83-.04-1.53.59-1.58,1.42-.05.82.58,1.53,1.41,1.57.28.01.55-.06.79-.18.89,1.11,2.7,2.74,4.57.7.75-.81,1.5-.93,2.07-.79-.16.59.27.9.79,1.22.35.21.66.47.92.62-.79,1.24-.87,3.21-.76,7.09.04,1.43.16,2.73.38,3.88-1.86-.63-2.8-1.8-4.22-3.05.2-.31.01-.65-.08-1.05-.17-.77-.65-1.31-1.39-1.15l-1.12.25c-.57-.99-1.1-1.81-1.32-2.22-.59-1.11-4.97-1.33-6.29-1.5.04-.12.04-.26-.01-.4-.05-.16-.16-.28-.29-.34.68-1.3,1.23-3.71,1.19-4.26-.04-.72-1.14-.54-1.35-.26l-.22.29s-.71.67-1.53.44c-.82-.23-1.91.26-2.36,1.05-.46.79-.82,1.55-1.41,1.66-.59.11.62,1.47,1.75,1.38.66-.05,1.63.48,2.51.43,0,.07.01.13.04.21.06.16.16.27.28.33-.4.39-2.08,2-2.75,2.96-.48.67-.65,1.76-.62,2.99l-.59.13c-.74.16-.94.88-.77,1.64.11.51.21.94.65,1.1.75,3.54,3.45,9.98,5.42,11.99,1.66,1.7,6.48,1.15,11.61.02-1.31,3.33-4.31,5.88-7.8,6.8-.49.1-.9.16-1.4.21-1.09.09-1.89-.17-2.36-.77-.5-.63-.48-1.46-.36-1.83.13-.39.51-.58.86-.66.32-.05.62.02.75.17.15.18.22.5.13.64-.15.24-.44.18-.54.15-.18-.05-.54.01-.62.37-.09.36.2.73.57.82.98.23,1.5-.47,1.66-.8.34-.66.11-1.46-.26-1.92-.4-.51-1.12-.74-1.88-.6-.01,0-.03,0-.04,0-.83.16-1.49.71-1.74,1.44-.25.76-.19,2,.55,2.95.5.64,1.5,1.32,3.39,1.22,2.09-.11,4.54-.67,5.48-.89,1.79-.42,10.5-2.5,17.42-4.38,5.77-1.57,22.81-5.5,27.67-9.62,4.24-3.61,4.17-7.77,3.25-10.06-.9-2.25-2.95-3.13-5.39-2.32-.94.32-1.63,1.01-1.95,1.96-.34.99-.21,2.1.33,2.91.42.62,1.25.98,2.17.93.96-.04,1.78-.51,2.18-1.26.37-.67.33-1.42-.09-2.01-.38-.52-1.02-.79-1.62-.68-.98.19-1.27,1.02-1.22,1.53,0,0,.06.48.58.43.51-.05.5-.32.61-.53.1-.2.17-.24.25-.25.16-.03.33.05.44.21.07.1.21.36,0,.74-.21.38-.65.62-1.19.64-.48.02-.95-.15-1.12-.41-.34-.49-.41-1.22-.2-1.86.14-.41.47-.96,1.21-1.21,1.07-.36,3-.63,3.91,1.64,1.12,2.81.18,5.52-2.79,8.06-1.01.86-2.55,1.72-4.33,2.53-.02,0-.02,0-.03,0-3.26.94-7.02.6-9.81-1.35,2.49-.87,4.62-1.85,5.94-3.04,2.26-2.03,1.65-8.5,1.38-10.33.32-.27.21-.65.12-1.1-.14-.63-.48-1.08-1.08-.94l-7.97,1.77c.11-1.25.46-2.44.99-3.57.08.02.14.04.23.06,1.04.22,1.94-1.42,1.87-2.24-.02-.29-.17-.48-.35-.63,1.16-1.5,2.58-2.88,4.05-4.12.52-.4,1.04-.8,1.58-1.16,6.25-4.27,13.84-6.94,21.2-8.49,11.74-2.46,23.91-1.73,35.6.58,1.52.3,3.04.63,4.55.97,2.39.54,4.69,1.4,7.08,1.96-.13.1-.25.2-.4.29-3.59,2.3-5.28,2.17-6.87,2.38-1.59.21-7.28,1.94-8.97,1.81-1.69-.14-2.35-2.21-3.83-2.25,0,0-.64,2.3.75,3.39,0,0-1.63,1.64-1.45,3.87.18,2.22.45,3.65-1.19,3.44-1.64-.22-3.55-.8-4.22.17-.64.92-1.02,1.93-1.65,4.44-.33,1.23-1.39,4.03-1.43,4.19-.25,1.09-1.07.73-.98,1.8.09,1.07-.32,1.59-.32,1.59-1.08.45-2.26,1.06-2.23,2.68.05,3.02.99,1.33,1.42.98.43-.35,1.2-1.57,1.52-2.15.32-.58,1.67-.87,1.86-2.4.1-.81.58-1.84,1-2.63.08-.15.21-.37.36-.65.22-.36,2.19-3.55,2.82-3.54,1.54.03,6.08,1,7.42.77,1.34-.23,4.11-2.94,5.35-3.52,1.24-.58,3.47-.82,4.85-.54,1.38.28,7.69-.48,10.22-1.68,2.52-1.2,4.6-3.29,5.19-3.71,0,0,3.52-1.5,4.68-2.6,0,0,1.09-.33.87.24-.21.58-1.29,1.85-2.16,2.5-.86.65-1.73,1.43-2.11,2.47-.38,1.03-1.03.19-1.59.13-.81-.1-2.32,2.45-1.32,4.53.31.65,1.15-.8,1.39-1.68,0,0,3.87-2.11,4.62-2.39.74-.28.68-1.09.86-1.5.18-.41,2.67-2.81,3.2-3.45.52-.63.31-3.76.05-4.33-.25-.58-1.03-.98-3.94-.19-2.91.78-3.34.24-3.34.24,0,0-.96-.49-.99-2.12.23-.1.43-.26.5-.48.13-.38-.15-.73-.39-1.02,0-.05.01-.1.02-.16.04,0,.09,0,.13,0,1.16.04,2.32-.02,3.47-.14,5.65-.56,10.93-3.13,15.79-5.91,5.26-3.5,10.89-6.68,17.32-7.19,3.65-.29,6.87.65,10.21,1.97,1.25.49,2.54.84,3.82,1.1-.41.47-.88.9-1.45,1.27-3.59,2.31-5.28,2.17-6.87,2.38-1.59.21-7.29,1.94-8.97,1.81-1.69-.14-2.35-2.21-3.84-2.25,0,0-.64,2.3.76,3.4,0,0-1.64,1.64-1.46,3.87.18,2.23.46,3.65-1.19,3.44-1.64-.22-3.55-.8-4.22.17-.63.91-1.02,1.93-1.65,4.44-.33,1.24-1.4,4.03-1.43,4.2-.24,1.09-1.07.73-.98,1.8.09,1.07-.33,1.59-.33,1.59-1.07.45-2.26,1.06-2.23,2.68.05,3.02,1,1.33,1.42.98.42-.35,1.2-1.56,1.52-2.15.32-.58,1.67-.87,1.86-2.4.1-.81.57-1.84,1-2.63.08-.14.21-.37.36-.64.21-.36,2.19-3.56,2.81-3.54,1.54.03,6.09,1,7.43.77,1.34-.23,4.11-2.94,5.35-3.52,1.24-.58,3.47-.82,4.86-.54,1.38.28,7.69-.49,10.21-1.69,2.53-1.2,4.61-3.28,5.19-3.71,0,0,3.53-1.5,4.68-2.6,0,0,1.09-.33.88.24-.23.58-1.3,1.86-2.17,2.51-.86.65-1.73,1.43-2.11,2.46-.38,1.03-1.03.19-1.59.13-.81-.1-2.32,2.45-1.32,4.53.31.65,1.15-.8,1.39-1.67,0,0,3.87-2.11,4.62-2.39.75-.28.68-1.09.86-1.51.18-.41,2.68-2.8,3.2-3.44.52-.64.3-3.76.05-4.34-.25-.57-1.03-.98-3.94-.19-2.92.79-3.34.24-3.34.24,0,0-1.06-.51-1-2.34,0-.22.04-.56.08-.95.29-.12.53-.3.64-.56.19-.42-.16-.85-.5-1.18,0-.16.01-.31.01-.46,1.42,0,2.85-.2,4.25-.46,3.34-.62,6.6-1.76,9.71-3.11,1.65-.71,3.26-1.52,4.8-2.43.04,0,.08-.02.11-.04,5.26-3.5,10.88-6.68,17.32-7.19,3.65-.29,6.87.66,10.21,1.97,1.25.49,2.53.84,3.82,1.11-.41.47-.88.9-1.46,1.27-3.59,2.3-5.28,2.17-6.87,2.38-1.59.22-7.29,1.95-8.97,1.81-1.69-.13-2.35-2.21-3.84-2.25,0,0-.64,2.3.76,3.39,0,0-1.64,1.64-1.45,3.87.19,2.23.45,3.65-1.19,3.44-1.64-.22-3.55-.8-4.22.17-.63.91-1.02,1.93-1.65,4.44-.33,1.24-1.39,4.02-1.43,4.2-.24,1.09-1.07.73-.98,1.8.08,1.07-.33,1.59-.33,1.59-1.08.45-2.27,1.06-2.23,2.68.06,3.02,1,1.33,1.43.98.42-.35,1.2-1.56,1.52-2.15.32-.58,1.67-.87,1.86-2.4.1-.81.58-1.84,1-2.63.08-.14.21-.37.36-.65.22-.36,2.2-3.55,2.82-3.54,1.54.03,6.08,1,7.42.77,1.34-.23,4.1-2.94,5.34-3.53,1.24-.58,3.47-.83,4.85-.54,1.38.28,7.7-.48,10.22-1.68,2.52-1.2,4.6-3.29,5.19-3.71,0,0,3.52-1.5,4.68-2.6,0,0,1.09-.34.88.24-.22.58-1.3,1.85-2.16,2.5-.86.66-1.73,1.43-2.12,2.47-.38,1.03-1.02.2-1.59.13-.81-.1-2.32,2.45-1.32,4.53.31.65,1.15-.8,1.39-1.67,0,0,3.87-2.11,4.61-2.39.75-.28.68-1.1.87-1.5.19-.41,2.67-2.8,3.2-3.44.52-.64.31-3.76.06-4.34-.26-.57-1.03-.98-3.95-.19-2.92.78-3.34.24-3.34.24,0,0-1.06-.52-1-2.34,0-.23.04-.56.09-.96.29-.12.53-.3.64-.56.19-.42-.16-.85-.5-1.19,0-.15,0-.3,0-.45,1.48.02,2.97-.15,4.43-.4,3.47-.58,6.85-1.75,10.05-3.21,1.54-.7,3.04-1.51,4.48-2.39.03-.01.06-.02.07-.03,3.95-2.63,8.03-5.03,12.62-6.36,3.03-.87,6.22-1.1,9.35-.63,2.72.41,5.16,1.73,7.75,2.53.52.16,1.05.29,1.58.4-.4.44-.86.85-1.41,1.2-3.59,2.31-5.28,2.17-6.87,2.38-1.59.21-7.29,1.94-8.97,1.81-1.69-.14-2.35-2.21-3.83-2.25,0,0-.64,2.3.76,3.39,0,0-1.64,1.65-1.45,3.87.18,2.23.45,3.65-1.19,3.43-1.64-.21-3.55-.8-4.23.17-.64.91-1.02,1.93-1.64,4.44-.33,1.23-1.39,4.02-1.43,4.19-.25,1.1-1.08.73-.99,1.8.09,1.07-.32,1.59-.32,1.59-1.08.45-2.26,1.06-2.23,2.68.05,3.02.99,1.33,1.42.98.42-.35,1.2-1.56,1.52-2.15.31-.58,1.67-.87,1.86-2.4.1-.81.58-1.84,1.01-2.63.08-.14.21-.37.36-.65.21-.36,2.19-3.55,2.81-3.54,1.55.03,6.09,1,7.43.77,1.33-.23,4.1-2.94,5.34-3.52,1.24-.58,3.48-.82,4.85-.54,1.37.28,7.7-.49,10.21-1.68,2.52-1.2,4.61-3.28,5.2-3.7,0,0,3.52-1.5,4.68-2.6,0,0,1.09-.33.87.24-.22.58-1.3,1.85-2.16,2.5-.86.65-1.73,1.43-2.11,2.47-.38,1.03-1.02.19-1.58.13-.81-.1-2.33,2.45-1.32,4.53.31.65,1.15-.8,1.39-1.67,0,0,3.87-2.11,4.62-2.39.74-.28.67-1.09.86-1.5.19-.41,2.68-2.8,3.2-3.44.52-.64.31-3.76.05-4.33ZM24.99,101.4c-4.41,1.2-6.81,1.98-8.97,2.53,1.95-1.51,2.36-3.27,3.08-5.65,2.59-.62,5.19-1.35,7.44-1.98.1,1.73-.82,3.54-1.56,5.1ZM36.08,78.08l4.88-2.99c.15.09.31.11.48.12-.72,1.07-1.33,2.19-1.73,3.35l-.44.1c-.61.13-.91.71-.77,1.34.06.3.16.58.39.75-.53,1.19-1.54,2.24-2.42,2.92,0-.73-.1-1.49-.28-2.25.01-.02.03-.02.04-.03.71-.81-.29-2.74-.29-2.74.07-.2.11-.38.13-.56ZM29.52,100.29c-.84.23-1.42.44-2.26.67.6-1.58.58-3.31.45-4.99.87-.24,1.68-.47,2.38-.65,1.18-.31,2.48-.62,3.84-.95.75,1.48,1.6,2.84,2.92,3.87-2.29.62-4.64,1.32-7.33,2.05ZM48.53,94.8c-2.44.82-7.44,2.27-9.42,2.81-1.43-.93-3.17-2.02-3.99-3.53,2.62-.63,5.38-1.31,7.89-2.1,1.98,1.61,3.63,2.88,5.52,2.82ZM42.25,78l-1.91.42c.43-1.18,1.06-2.29,1.79-3.33.02,0,.04,0,.05-.01.53-.17.92-.46,1.02-.94.03.02.08.03.12.05-.58,1.21-.95,2.49-1.07,3.82ZM109.17,58.18c-4.89-1.01-9.84-1.74-14.82-2.1-11.14-.81-22.46.47-32.91,4.53-2.76,1.07-5.46,2.31-8,3.8.16-.11.31-.22.46-.33,6.01-4.29,12.99-7.2,20.16-8.87,11.61-2.7,23.72-1.93,35.33.37,1.94.38,3.87.81,5.8,1.25,2.2.5,4.25,1.41,6.37,2.15-.38.69-.88,1.35-1.54,1.93-3.63-.8-7.2-1.97-10.84-2.73ZM129.45,59.75c-.09.02-.19.03-.29.04.03-.32.05-.64.07-.96.58.38.98.79.22.92ZM148.2,53.89c-3.39,1.94-6.9,3.69-10.65,4.83-2.4.73-4.81,1.03-7.27,1.07.28-.25.2-.6-.21-.95-.25-.21-.53-.4-.83-.57,0-.13,0-.25-.01-.37,2.76-.03,5.58-.03,8.29-.48,4.81-.81,9.3-2.98,13.52-5.36-.96.59-1.9,1.21-2.83,1.83ZM181.8,45.1c-.44-.26-.23-.35.05-.37,0,.13,0,.25-.02.38-.02,0-.03,0-.04-.01ZM177.46,49c-2.88-.99-5.46-2.21-8.56-2.41-6.06-.37-11.76,1.85-16.89,4.88,5.14-3.39,10.63-6.41,16.89-6.91,3.65-.29,6.87.65,10.21,1.97.75.29,1.52.54,2.29.76-.27.83-.67,1.67-1.27,2.43-.9-.18-1.79-.41-2.68-.72ZM188.5,47.75s0,0-.02,0c0-.25-.03-.48-.07-.69.39.3.57.58.08.68ZM209.44,40.36c-.72.45-1.42.91-2.12,1.38h0c-2.97,1.78-6.16,3.17-9.44,4.28-2.75.93-5.69,1.68-8.61,1.81.12-.11.17-.25.13-.43-.1-.46-.66-.82-1.23-1.11-.07-.14-.13-.27-.22-.41.99-.05,1.98-.1,2.96-.06,3.32.15,6.7-.75,9.82-1.75,3.33-1.06,6.58-2.48,9.59-4.25-.29.18-.58.36-.87.54ZM306.32,23.83c0-.27-.03-.51-.07-.72.1.08.23.16.31.25.27.29.05.41-.24.47ZM299.49,20.76c.06-.01.14,0,.2,0,0,.14-.01.29-.02.44-.2-.16-.41-.38-.18-.43ZM240.41,32.81c-.01-.07.11-.09.29-.09,0,.15,0,.29-.02.44-.13-.09-.23-.21-.27-.35ZM235.24,36.63c-2.92-1.12-5.62-2-8.78-2.06-5.59-.12-10.9,2.14-15.64,4.94,5.15-3.39,10.65-6.43,16.92-6.92,3.65-.29,6.87.65,10.22,1.97.75.3,1.51.54,2.29.76-.27.83-.67,1.67-1.28,2.44-1.28-.29-2.53-.67-3.73-1.13ZM247.31,35.76c0-.26-.03-.5-.07-.71.36.28.53.56.07.71ZM291.9,23.76c-9.05-3.4-18.22,1.14-25.69,6.08,0,0,0,0,0,0-3.26,2.02-6.77,3.58-10.45,4.69-1.72.52-3.49.9-5.28,1.14-.8.11-1.61.17-2.41.2.13-.11.2-.26.16-.46-.11-.45-.67-.82-1.23-1.1-.07-.15-.14-.29-.23-.43,1.33-.03,2.38-.07,2.63-.06,6.93.33,14.09-2.41,19.94-5.98.02,0,.04-.01.07-.03,5.26-3.49,10.88-6.67,17.31-7.19,3.65-.29,6.87.66,10.22,1.97.75.29,1.51.55,2.29.77-.27.83-.68,1.67-1.28,2.44-2.08-.47-4.04-1.29-6.06-2.05Z" />
  </g>
</svg>